<svg xmlns="http://www.w3.org/2000/svg" xmlns:xlink="http://www.w3.org/1999/xlink" width="630.208" height="261.562" viewBox="0 0 630.208 261.562">
  <defs>
    <linearGradient id="linear-gradient" x1="1.025" y1="1.309" x2="-0.615" y2="-0.978" gradientUnits="objectBoundingBox">
      <stop offset="0.247" stop-color="#36a9e1"/>
      <stop offset="0.657" stop-color="#2d2e83"/>
    </linearGradient>
  </defs>
  <g id="Main_Logo" data-name="Main Logo" transform="translate(-647.237 -4623.428)">
    <g id="Group_20" data-name="Group 20">
      <g id="Group_15" data-name="Group 15">
        <path id="Path_174" data-name="Path 174" d="M697.249,4757.3a6.292,6.292,0,0,0,4.309-1.543,5.3,5.3,0,0,0,1.755-4.2,5.473,5.473,0,0,0-1.755-4.256,6.167,6.167,0,0,0-4.309-1.6,6.31,6.31,0,0,0-4.416,1.6,5.474,5.474,0,0,0-1.756,4.256,5.3,5.3,0,0,0,1.756,4.2A6.441,6.441,0,0,0,697.249,4757.3Z" fill="#2d2e83"/>
        <path id="Path_175" data-name="Path 175" d="M712.89,4757.3a6.3,6.3,0,0,0,4.31-1.543,5.307,5.307,0,0,0,1.756-4.2,5.477,5.477,0,0,0-1.756-4.256,6.169,6.169,0,0,0-4.31-1.6,6.307,6.307,0,0,0-4.415,1.6,5.474,5.474,0,0,0-1.756,4.256,5.3,5.3,0,0,0,1.756,4.2A6.439,6.439,0,0,0,712.89,4757.3Z" fill="#2d2e83"/>
        <path id="Path_176" data-name="Path 176" d="M735.235,4825.723a6.32,6.32,0,0,0-4.416,1.595,5.473,5.473,0,0,0-1.756,4.257,5.306,5.306,0,0,0,1.756,4.2,6.443,6.443,0,0,0,4.416,1.543,6.292,6.292,0,0,0,4.309-1.543,5.305,5.305,0,0,0,1.756-4.2,5.473,5.473,0,0,0-1.756-4.257A6.175,6.175,0,0,0,735.235,4825.723Z" fill="#2d2e83"/>
        <path id="Path_177" data-name="Path 177" d="M750.876,4825.723a6.321,6.321,0,0,0-4.416,1.595,5.475,5.475,0,0,0-1.755,4.257,5.308,5.308,0,0,0,1.755,4.2,6.444,6.444,0,0,0,4.416,1.543,6.293,6.293,0,0,0,4.31-1.543,5.309,5.309,0,0,0,1.756-4.2,5.476,5.476,0,0,0-1.756-4.257A6.175,6.175,0,0,0,750.876,4825.723Z" fill="#2d2e83"/>
        <path id="Path_178" data-name="Path 178" d="M757.367,4769.114h-6.384q-2.767,0-2.767,2.66v24.048q0,3.3-1.01,4.364t-4.1,1.064H724.595v-11.492a25.69,25.69,0,0,0-1.49-9.2,17.094,17.094,0,0,0-4.2-6.438,16.9,16.9,0,0,0-6.544-3.777,27.533,27.533,0,0,0-8.406-1.224q-10,0-15.589,5.906t-5.586,15.695q0,11.493,5.693,16.865t16.014,5.374h7.555q-1.811,5.747-8.566,8.832t-18.036,3.085q-26.071,0-26.069-16.387a27.562,27.562,0,0,1,.957-6.809,37,37,0,0,1,2.767-7.342,3.388,3.388,0,0,0,.532-2.5,3.144,3.144,0,0,0-1.809-1.436l-5.107-2.341q-1.812-.743-2.661-.213a5.508,5.508,0,0,0-1.7,2.234,52.312,52.312,0,0,0-3.778,9.844,36.227,36.227,0,0,0-1.33,9.416q0,13.407,10,20.218t28.092,6.809q17.023,0,27.24-5.8a22.429,22.429,0,0,0,11.705-17.61h20q8.3,0,12.077-3.352t3.778-9.949v-27.879Q760.134,4769.116,757.367,4769.114Zm-44.689,32.136H706.4q-6.064,0-8.778-2.129t-2.713-8.513a11.15,11.15,0,0,1,2.287-7.341q2.287-2.766,7.076-2.767,4.47,0,6.438,2.5a10.457,10.457,0,0,1,1.969,6.65Z" fill="#2d2e83"/>
        <path id="Path_179" data-name="Path 179" d="M945.812,4756.346a6.294,6.294,0,0,0,4.309-1.543,5.307,5.307,0,0,0,1.756-4.2,5.469,5.469,0,0,0-1.756-4.256,6.165,6.165,0,0,0-4.309-1.6,6.309,6.309,0,0,0-4.416,1.6,5.469,5.469,0,0,0-1.756,4.256,5.307,5.307,0,0,0,1.756,4.2A6.443,6.443,0,0,0,945.812,4756.346Z" fill="#2d2e83"/>
        <path id="Path_180" data-name="Path 180" d="M930.17,4756.346a6.294,6.294,0,0,0,4.309-1.543,5.307,5.307,0,0,0,1.756-4.2,5.469,5.469,0,0,0-1.756-4.256,6.165,6.165,0,0,0-4.309-1.6,6.308,6.308,0,0,0-4.416,1.6A5.469,5.469,0,0,0,924,4750.6a5.307,5.307,0,0,0,1.756,4.2A6.443,6.443,0,0,0,930.17,4756.346Z" fill="#2d2e83"/>
        <path id="Path_181" data-name="Path 181" d="M1016.676,4736.979l-7.661,1.064a3.006,3.006,0,0,0-1.543.691,2.677,2.677,0,0,0-.479,1.864v55.224q0,3.3-1.011,4.364t-4.1,1.064h-8.936a24.56,24.56,0,0,1-6.7-.746,11.221,11.221,0,0,1-4.363-2.34v-58.95q0-2.552-2.235-2.235l-7.661,1.064a3.009,3.009,0,0,0-1.543.691,2.683,2.683,0,0,0-.479,1.864v55.224q0,3.3-1.01,4.364t-4.1,1.064h-10a24.571,24.571,0,0,1-6.7-.746,11.225,11.225,0,0,1-4.362-2.34v-26.39q0-2.658-2.767-2.66h-6.384q-2.769,0-2.767,2.66v24.048q0,3.3-1.011,4.364t-4.1,1.064h-10a26.5,26.5,0,0,1-6.65-.692,10.076,10.076,0,0,1-4.416-2.394,5.746,5.746,0,0,0,.106-1.117v-25.379a2.437,2.437,0,0,0-.692-2.022,3.176,3.176,0,0,0-1.968-.532h-6.916a2.755,2.755,0,0,0-1.81.532,2.557,2.557,0,0,0-.638,2.022v22.665a9.115,9.115,0,0,1-1.383,5.161q-1.384,2.074-5.108,2.074a11.616,11.616,0,0,1-4.2-.8,13.449,13.449,0,0,1-4.1-2.607v-16.92a2.55,2.55,0,0,0-.638-2.021,2.942,2.942,0,0,0-1.915-.532h-6.7a3.172,3.172,0,0,0-1.968.532,2.427,2.427,0,0,0-.692,2.021v13.089a9.107,9.107,0,0,1-1.384,5.161q-1.383,2.074-5.107,2.074a13.148,13.148,0,0,1-8.406-3.3v-17.026a2.553,2.553,0,0,0-.638-2.021,2.945,2.945,0,0,0-1.916-.532H842.7a2.982,2.982,0,0,0-1.863.532,2.431,2.431,0,0,0-.691,2.021v13.94q0,6.066-5.959,6.066H814.4v-11.492a25.69,25.69,0,0,0-1.49-9.2,17.1,17.1,0,0,0-4.2-6.438,16.913,16.913,0,0,0-6.545-3.777,27.538,27.538,0,0,0-8.406-1.224q-10,0-15.589,5.906t-5.586,15.695q0,11.493,5.693,16.865t16.014,5.374h5.853a19.7,19.7,0,0,1-5.48,6.97,61.656,61.656,0,0,1-10.056,6.437,5.351,5.351,0,0,0-1.968,1.65,1.912,1.912,0,0,0,.159,1.968l2.979,5.427q1.278,2.339,3.512,1.17a99.7,99.7,0,0,0,9.9-5.586,45.394,45.394,0,0,0,6.969-5.48,25.55,25.55,0,0,0,4.523-5.852,26.325,26.325,0,0,0,2.553-6.7h22.345a22.02,22.02,0,0,0,8.832-1.543,12.526,12.526,0,0,0,5.427-4.309,14.712,14.712,0,0,0,6.118,4.416,19.649,19.649,0,0,0,7.183,1.436,16.651,16.651,0,0,0,7.821-1.7,13.745,13.745,0,0,0,5.161-4.576,16.743,16.743,0,0,0,6.171,4.735,18.831,18.831,0,0,0,7.661,1.543,16.976,16.976,0,0,0,7.875-1.7,13.647,13.647,0,0,0,5.214-4.576c2.531,4.039,6.9,6.109,13.065,6.251a2.3,2.3,0,0,0,.235.027h11.6q10.32,0,13.833-5.32a13.2,13.2,0,0,0,5.214,3.936,19.259,19.259,0,0,0,7.239,1.36c.069.006.14.024.208.024h11.6q10.32,0,13.833-5.32a13.2,13.2,0,0,0,5.214,3.936,19.259,19.259,0,0,0,7.239,1.36c.07.006.14.024.208.024h10.535q8.3,0,12.077-3.352t3.777-9.949v-60.439Q1018.91,4736.661,1016.676,4736.979ZM802.482,4801.25h-6.277q-6.066,0-8.779-2.129t-2.714-8.513a11.151,11.151,0,0,1,2.288-7.341q2.288-2.766,7.076-2.767,4.47,0,6.438,2.5a10.457,10.457,0,0,1,1.968,6.65Z" fill="#2d2e83"/>
      </g>
      <g id="Group_19" data-name="Group 19">
        <g id="Group_17" data-name="Group 17">
          <g id="Group_16" data-name="Group 16">
            <path id="Path_182" data-name="Path 182" d="M731.379,4852.1a1.03,1.03,0,0,1,1.158-1.11h2.846a1.723,1.723,0,0,1,1.061.265,2.1,2.1,0,0,1,.579.8l11.142,23.828h.1l10.177-23.828a1.959,1.959,0,0,1,.555-.82,1.622,1.622,0,0,1,.989-.242h2.846a.987.987,0,0,1,1.109,1.062l1.447,31.015a1.443,1.443,0,0,1-.193.964,1.057,1.057,0,0,1-.917.337h-3.906c-.515,0-.845-.111-.989-.337a2.787,2.787,0,0,1-.266-1.255l-.675-19.583h-.1l-8.2,20.308a1.611,1.611,0,0,1-.507.7,1.488,1.488,0,0,1-.8.168h-1.688a2.046,2.046,0,0,1-.916-.168,1.375,1.375,0,0,1-.579-.748l-9.116-20.259h-.1l-.434,19.97q0,.82-.314,1.013a1.942,1.942,0,0,1-.988.192h-3.28q-1.3,0-1.254-1.254Z" fill="#36a9e1"/>
            <path id="Path_183" data-name="Path 183" d="M781.013,4851.95a2.077,2.077,0,0,1,.482-.7,1.173,1.173,0,0,1,.82-.265h3.859a1.312,1.312,0,0,1,1.35.869l11.866,31.255a1.078,1.078,0,0,1,0,.893.744.744,0,0,1-.723.361h-4.39a1.588,1.588,0,0,1-1.085-.289,2.445,2.445,0,0,1-.555-.868l-2.508-7.091h-12.2l-2.508,7.237a1.617,1.617,0,0,1-.434.747,1.251,1.251,0,0,1-.868.264h-4.148c-.386,0-.635-.111-.748-.337a1.085,1.085,0,0,1,.024-.868Zm7.476,19.488-3.425-10.178-.964-3.136H784l-1.013,3.184-3.425,10.13Z" fill="#36a9e1"/>
            <path id="Path_184" data-name="Path 184" d="M826.835,4882.916a1.568,1.568,0,0,1,.29,1.063c-.065.257-.322.384-.772.384H822.06a2.273,2.273,0,0,1-1.134-.217,2.24,2.24,0,0,1-.7-.748l-6.946-11.334h-3.714v11.094q0,1.206-1.109,1.2H804.5q-1.156,0-1.157-1.2v-30.773a1.818,1.818,0,0,1,.241-1.11,1.393,1.393,0,0,1,1.061-.29h7.139q1.591,0,3.159.145a18.827,18.827,0,0,1,3.039.53,12.111,12.111,0,0,1,2.749,1.086,8.128,8.128,0,0,1,2.244,1.809,9.193,9.193,0,0,1,1.736,3.062,11.454,11.454,0,0,1,.579,3.691,10.311,10.311,0,0,1-1.665,5.837,10.2,10.2,0,0,1-4.558,3.761Zm-7.862-21.512q0-3.135-1.93-4.414a9.032,9.032,0,0,0-5.064-1.277h-2.412v11.672h2.991a6.87,6.87,0,0,0,4.654-1.52A5.57,5.57,0,0,0,818.973,4861.4Z" fill="#36a9e1"/>
            <path id="Path_185" data-name="Path 185" d="M850.952,4884.363a2.624,2.624,0,0,1-1.35-.289,3.611,3.611,0,0,1-.965-.916L838.218,4869.8h-.1v13.361q0,1.206-1.158,1.2H833.1a1.065,1.065,0,0,1-1.206-1.2v-31.015q0-1.158,1.206-1.158h3.859a1.332,1.332,0,0,1,.869.242,1.159,1.159,0,0,1,.289.916v13.65h.1l9.937-13.939a2.554,2.554,0,0,1,.747-.676,2.264,2.264,0,0,1,1.037-.193h3.714a.939.939,0,0,1,.7.193.643.643,0,0,1,.168.434,1.652,1.652,0,0,1-.385.917L843.283,4867.1l12.589,15.483a2.727,2.727,0,0,1,.482.675,1.3,1.3,0,0,1,.1.482.6.6,0,0,1-.193.435,1.026,1.026,0,0,1-.723.192Z" fill="#36a9e1"/>
            <path id="Path_186" data-name="Path 186" d="M879.217,4868.639a1.154,1.154,0,0,1-.24.8,1.231,1.231,0,0,1-.917.264H866.87v9.648H879.8q1.206,0,1.206,1.109v2.749a1.022,1.022,0,0,1-1.157,1.157h-17.9a1.613,1.613,0,0,1-1.012-.24,1.394,1.394,0,0,1-.29-1.061v-30.871c0-.8.37-1.206,1.109-1.206h18.185c.482,0,.788.1.916.29a1.1,1.1,0,0,1,.1.82l-.338,2.893a.984.984,0,0,1-.482.845,3.048,3.048,0,0,1-1.157.169H866.87v8.73h11.19a1.224,1.224,0,0,1,.917.266,1.15,1.15,0,0,1,.24.795Z" fill="#36a9e1"/>
            <path id="Path_187" data-name="Path 187" d="M893.833,4856h-9.021q-1.109,0-1.109-1.158V4852q0-1.014,1.061-1.013h24.455a2.017,2.017,0,0,1,1.23.265.993.993,0,0,1,.218.941l-.338,2.8a1.109,1.109,0,0,1-.434.8,2.014,2.014,0,0,1-1.062.217H900.1v27.156q0,1.206-1.158,1.2h-3.906a1.065,1.065,0,0,1-1.206-1.2Z" fill="#36a9e1"/>
            <path id="Path_188" data-name="Path 188" d="M927.307,4854.023a1.045,1.045,0,0,1-.241.8,1.133,1.133,0,0,1-.772.217h-2.749v25.276H926.2a.948.948,0,0,1,.772.289,1.094,1.094,0,0,1,.241.723v2.073c0,.645-.29.965-.868.965H914.766c-.643,0-.964-.3-.964-.916v-2.17a.852.852,0,0,1,.964-.964h2.6v-25.276h-2.8a.852.852,0,0,1-.964-.965v-2.122a1.092,1.092,0,0,1,.217-.675.761.761,0,0,1,.651-.29h11.817a1,1,0,0,1,.772.265.936.936,0,0,1,.241.652Z" fill="#36a9e1"/>
            <path id="Path_189" data-name="Path 189" d="M960.541,4850.985a1.109,1.109,0,0,1,1.254,1.254v30.823a1.323,1.323,0,0,1-.314,1.061,1.353,1.353,0,0,1-.844.24H957.55a2.3,2.3,0,0,1-1.977-1.011l-15.725-21.514h-.1v21.271a1.108,1.108,0,0,1-1.253,1.254h-3.474a1.629,1.629,0,0,1-.988-.24,1.17,1.17,0,0,1-.314-.965v-30.871a1.329,1.329,0,0,1,.314-1.037,1.519,1.519,0,0,1,.988-.265h3.136a1.859,1.859,0,0,1,.916.193,2.563,2.563,0,0,1,.724.724l15.869,21.8h.1v-21.465a1.108,1.108,0,0,1,1.254-1.254Z" fill="#36a9e1"/>
            <path id="Path_190" data-name="Path 190" d="M995.028,4880.891a1.988,1.988,0,0,1-.241,1.086,2.743,2.743,0,0,1-.917.747,14.288,14.288,0,0,1-2.291.94,24.54,24.54,0,0,1-2.725.7,29.168,29.168,0,0,1-2.942.435q-1.5.146-2.846.144a16.789,16.789,0,0,1-6.681-1.254,14,14,0,0,1-4.944-3.5,14.831,14.831,0,0,1-3.063-5.4,22.417,22.417,0,0,1-1.037-7.018,19.987,19.987,0,0,1,1.182-6.97,16.529,16.529,0,0,1,3.3-5.523,14.873,14.873,0,0,1,5.137-3.618,16.812,16.812,0,0,1,6.729-1.3,22.786,22.786,0,0,1,4.486.435,20.707,20.707,0,0,1,4.341,1.4q.675.291.7.651a1.7,1.7,0,0,1-.169.8l-1.157,2.99q-.339.82-1.351.386a17.967,17.967,0,0,0-3.039-.965,15.322,15.322,0,0,0-3.521-.435,10.242,10.242,0,0,0-3.762.7,8.129,8.129,0,0,0-3.039,2.05,10.6,10.6,0,0,0-2.364,3.907,15.87,15.87,0,0,0-.819,5.306q0,5.643,2.46,8.9a8.1,8.1,0,0,0,6.849,3.255,20.889,20.889,0,0,0,2.99-.217,10.972,10.972,0,0,0,2.46-.6V4869.7h-4.293a1.235,1.235,0,0,1-.8-.217,1.06,1.06,0,0,1-.265-.844V4865.7a.868.868,0,0,1,.29-.771,1.469,1.469,0,0,1,.82-.194h9.357a1.432,1.432,0,0,1,.893.217,1.14,1.14,0,0,1,.265.893Z" fill="#36a9e1"/>
            <path id="Path_191" data-name="Path 191" d="M1014.369,4852.1a1.03,1.03,0,0,1,1.158-1.11h2.846a1.725,1.725,0,0,1,1.061.265,2.1,2.1,0,0,1,.579.8l11.142,23.828h.1l10.178-23.828a1.951,1.951,0,0,1,.555-.82,1.62,1.62,0,0,1,.989-.242h2.845a.988.988,0,0,1,1.11,1.062l1.447,31.015a1.455,1.455,0,0,1-.193.964,1.059,1.059,0,0,1-.917.337h-3.907c-.514,0-.844-.111-.988-.337a2.787,2.787,0,0,1-.266-1.255l-.675-19.583h-.1l-8.2,20.308a1.6,1.6,0,0,1-.506.7,1.488,1.488,0,0,1-.8.168h-1.688a2.043,2.043,0,0,1-.916-.168,1.381,1.381,0,0,1-.58-.748l-9.116-20.259h-.1l-.434,19.97q0,.82-.314,1.013a1.947,1.947,0,0,1-.989.192h-3.28q-1.3,0-1.253-1.254Z" fill="#36a9e1"/>
            <path id="Path_192" data-name="Path 192" d="M1064,4851.95a2.078,2.078,0,0,1,.482-.7,1.175,1.175,0,0,1,.82-.265h3.859a1.315,1.315,0,0,1,1.351.869l11.865,31.255a1.078,1.078,0,0,1,0,.893.744.744,0,0,1-.723.361h-4.39a1.589,1.589,0,0,1-1.085-.289,2.46,2.46,0,0,1-.555-.868l-2.508-7.091h-12.2l-2.508,7.237a1.619,1.619,0,0,1-.435.747,1.251,1.251,0,0,1-.868.264h-4.148c-.386,0-.635-.111-.748-.337a1.089,1.089,0,0,1,.024-.868Zm7.476,19.488-3.424-10.178-.965-3.136h-.1l-1.013,3.184-3.424,10.13Z" fill="#36a9e1"/>
            <path id="Path_193" data-name="Path 193" d="M1105.387,4884.363a2.625,2.625,0,0,1-1.351-.289,3.607,3.607,0,0,1-.964-.916l-10.419-13.361h-.1v13.361q0,1.206-1.158,1.2h-3.859a1.065,1.065,0,0,1-1.206-1.2v-31.015q0-1.158,1.206-1.158h3.859a1.328,1.328,0,0,1,.868.242,1.156,1.156,0,0,1,.29.916v13.65h.1l9.936-13.939a2.554,2.554,0,0,1,.748-.676,2.258,2.258,0,0,1,1.037-.193h3.714a.942.942,0,0,1,.7.193.643.643,0,0,1,.168.434,1.655,1.655,0,0,1-.386.917l-10.852,14.567,12.589,15.483a2.726,2.726,0,0,1,.482.675,1.3,1.3,0,0,1,.1.482.6.6,0,0,1-.193.435,1.028,1.028,0,0,1-.724.192Z" fill="#36a9e1"/>
            <path id="Path_194" data-name="Path 194" d="M1133.652,4868.639a1.154,1.154,0,0,1-.241.8,1.229,1.229,0,0,1-.916.264H1121.3v9.648h12.927q1.2,0,1.206,1.109v2.749a1.022,1.022,0,0,1-1.158,1.157h-17.9a1.618,1.618,0,0,1-1.013-.24,1.4,1.4,0,0,1-.289-1.061v-30.871c0-.8.369-1.206,1.109-1.206h18.184c.483,0,.788.1.917.29a1.109,1.109,0,0,1,.1.82l-.338,2.893c-.065.451-.225.733-.483.845a3.041,3.041,0,0,1-1.157.169H1121.3v8.73h11.191a1.222,1.222,0,0,1,.916.266,1.15,1.15,0,0,1,.241.795Z" fill="#36a9e1"/>
            <path id="Path_195" data-name="Path 195" d="M1164.522,4882.916a1.568,1.568,0,0,1,.29,1.063c-.065.257-.323.384-.772.384h-4.293a2.273,2.273,0,0,1-1.134-.217,2.24,2.24,0,0,1-.7-.748l-6.946-11.334h-3.714v11.094q0,1.206-1.109,1.2h-3.956q-1.156,0-1.157-1.2v-30.773a1.819,1.819,0,0,1,.241-1.11,1.393,1.393,0,0,1,1.061-.29h7.139q1.592,0,3.159.145a18.828,18.828,0,0,1,3.039.53,12.114,12.114,0,0,1,2.749,1.086,8.128,8.128,0,0,1,2.244,1.809,9.191,9.191,0,0,1,1.736,3.062,11.454,11.454,0,0,1,.579,3.691,10.311,10.311,0,0,1-1.665,5.837,10.2,10.2,0,0,1-4.558,3.761Zm-7.862-21.512q0-3.135-1.93-4.414a9.032,9.032,0,0,0-5.064-1.277h-2.412v11.672h2.991a6.871,6.871,0,0,0,4.654-1.52A5.57,5.57,0,0,0,1156.66,4861.4Z" fill="#36a9e1"/>
            <path id="Path_196" data-name="Path 196" d="M1190.183,4874.62a10.014,10.014,0,0,1-.941,4.439,9.351,9.351,0,0,1-2.556,3.23,11.413,11.413,0,0,1-3.739,1.979,14.75,14.75,0,0,1-4.485.674,29.67,29.67,0,0,1-4.607-.385,25.61,25.61,0,0,1-4.606-1.159q-.677-.24-.8-.627a1.422,1.422,0,0,1,.072-.916l1.013-3.134q.192-.627.579-.748a1.587,1.587,0,0,1,1.013.121,27.148,27.148,0,0,0,3.521,1.037,16.772,16.772,0,0,0,3.666.41,8.167,8.167,0,0,0,1.954-.242,5.552,5.552,0,0,0,1.785-.772,4.446,4.446,0,0,0,1.3-1.326,3.565,3.565,0,0,0,.507-1.953,3.487,3.487,0,0,0-1.061-2.678,9.948,9.948,0,0,0-2.46-1.664l-6.271-3.135a10.9,10.9,0,0,1-4.148-3.353,8.109,8.109,0,0,1-1.543-4.943,7.594,7.594,0,0,1,.988-3.908,9.294,9.294,0,0,1,2.581-2.845,11.923,11.923,0,0,1,3.57-1.761,13.689,13.689,0,0,1,4-.6,24.138,24.138,0,0,1,4.462.386,19.808,19.808,0,0,1,4.173,1.3,1.779,1.779,0,0,1,.868.627,1.143,1.143,0,0,1-.048.965l-1.158,2.941c-.161.419-.37.651-.627.7a1.731,1.731,0,0,1-.964-.168,19.719,19.719,0,0,0-3.232-1.086,13.418,13.418,0,0,0-3.136-.41,8.03,8.03,0,0,0-1.736.194,4.981,4.981,0,0,0-1.567.627,3.471,3.471,0,0,0-1.134,1.133,3.191,3.191,0,0,0-.434,1.712,2.81,2.81,0,0,0,.314,1.326,4.262,4.262,0,0,0,.8,1.086,5.158,5.158,0,0,0,1.109.844q.625.363,1.2.651l5.355,2.6a14.16,14.16,0,0,1,4.654,3.449A7.963,7.963,0,0,1,1190.183,4874.62Z" fill="#36a9e1"/>
            <path id="Path_197" data-name="Path 197" d="M1231.326,4881.47a1.066,1.066,0,0,1-.675,1.495,30.545,30.545,0,0,1-4.678,1.471,22.624,22.624,0,0,1-4.92.506,16.122,16.122,0,0,1-6.657-1.278,12.889,12.889,0,0,1-4.727-3.545,15.178,15.178,0,0,1-2.822-5.426,24,24,0,0,1-.941-6.874,21.263,21.263,0,0,1,1.086-6.9,16.683,16.683,0,0,1,3.111-5.547,14.162,14.162,0,0,1,4.919-3.69,15.46,15.46,0,0,1,6.512-1.327,20.376,20.376,0,0,1,9.069,2.027,1.667,1.667,0,0,1,.723.554,1.15,1.15,0,0,1-.1.892l-1.109,3.039q-.288.915-1.206.435a14.683,14.683,0,0,0-3.5-1.352,15.437,15.437,0,0,0-3.5-.386,8.131,8.131,0,0,0-4.27,1.062,9.094,9.094,0,0,0-2.893,2.749,11.579,11.579,0,0,0-1.641,3.858,19.1,19.1,0,0,0-.506,4.342,18.73,18.73,0,0,0,.627,5.041,11.309,11.309,0,0,0,1.833,3.834,8.03,8.03,0,0,0,2.966,2.436,9.088,9.088,0,0,0,3.98.844,16.964,16.964,0,0,0,6.946-1.544,1.184,1.184,0,0,1,.771-.168c.194.048.37.25.531.6Z" fill="#36a9e1"/>
            <path id="Path_198" data-name="Path 198" d="M1257.229,4872.643a14.792,14.792,0,0,1-.773,4.847,11.061,11.061,0,0,1-2.291,3.907,10.615,10.615,0,0,1-3.714,2.6,12.572,12.572,0,0,1-4.992.94,12.786,12.786,0,0,1-5.113-.94,9.511,9.511,0,0,1-3.57-2.6,11.143,11.143,0,0,1-2.1-3.907,16.356,16.356,0,0,1-.7-4.9,14.783,14.783,0,0,1,.772-4.847,10.616,10.616,0,0,1,5.98-6.464,12.521,12.521,0,0,1,5.017-.94,13.068,13.068,0,0,1,5.113.917,9.437,9.437,0,0,1,3.57,2.556,10.874,10.874,0,0,1,2.1,3.907A16.621,16.621,0,0,1,1257.229,4872.643Zm-6.031,0a15.267,15.267,0,0,0-.264-2.87,7.874,7.874,0,0,0-.893-2.46,4.856,4.856,0,0,0-1.688-1.737,5,5,0,0,0-2.653-.65,5.259,5.259,0,0,0-2.7.65,5.057,5.057,0,0,0-1.761,1.689,7.319,7.319,0,0,0-.94,2.411,13.6,13.6,0,0,0-.29,2.822,15.6,15.6,0,0,0,.265,2.9,8.107,8.107,0,0,0,.893,2.507,4.986,4.986,0,0,0,1.688,1.786,4.851,4.851,0,0,0,2.653.674,5.119,5.119,0,0,0,2.677-.651,5.2,5.2,0,0,0,1.76-1.736,7.524,7.524,0,0,0,.965-2.46A13.833,13.833,0,0,0,1251.2,4872.643Z" fill="#36a9e1"/>
            <path id="Path_199" data-name="Path 199" d="M1269,4881.662a3.045,3.045,0,0,1-.313,1.424,3.658,3.658,0,0,1-.8,1.037,3.209,3.209,0,0,1-1.11.65,3.724,3.724,0,0,1-2.507,0,3.2,3.2,0,0,1-1.11-.65,3.641,3.641,0,0,1-.8-1.037,3.034,3.034,0,0,1-.313-1.424,3.069,3.069,0,0,1,.313-1.4,3.526,3.526,0,0,1,.8-1.061,3.2,3.2,0,0,1,1.11-.652,3.732,3.732,0,0,1,2.507,0,3.215,3.215,0,0,1,1.11.652,3.542,3.542,0,0,1,.8,1.061A3.081,3.081,0,0,1,1269,4881.662Z" fill="#36a9e1"/>
          </g>
        </g>
        <g id="Group_18" data-name="Group 18">
          <path id="Path_200" data-name="Path 200" d="M799.317,4709.51H775.482a21.939,21.939,0,0,1-4.682-6.757,16.612,16.612,0,0,1-1.383-6.331,9.692,9.692,0,0,1,2.5-6.917q2.5-2.659,7.928-2.66a23.713,23.713,0,0,1,10,2.553,3.183,3.183,0,0,0,2.075.426,2.3,2.3,0,0,0,1.224-1.383l2.553-5.64q.744-1.7-1.17-2.873a28.387,28.387,0,0,0-15.749-4.469,26.438,26.438,0,0,0-8.512,1.33,20.623,20.623,0,0,0-6.863,3.831,17.459,17.459,0,0,0-4.576,6.118,19.811,19.811,0,0,0-1.649,8.3,22.873,22.873,0,0,0,1.649,8.3,26.678,26.678,0,0,0,5.054,8.087q-7.021,2.131-10.374,6.917a20.461,20.461,0,0,0-3.352,12.023q0,10.639,7.182,16.174t20.7,5.533a61.356,61.356,0,0,0,11.119-1.01,46.441,46.441,0,0,0,9.524-2.714,4.3,4.3,0,0,0,2.021-1.49,2.885,2.885,0,0,0,0-2.447l-2.021-5.214a2.822,2.822,0,0,0-1.064-1.543,3.23,3.23,0,0,0-2.342.16,58.8,58.8,0,0,1-16.812,2.874q-7.343,0-11.705-2.555a8.317,8.317,0,0,1-4.362-7.661q0-4.79,3.511-7.023t11.386-2.234h22.026a2.128,2.128,0,0,0,1.862-.692,3.427,3.427,0,0,0,.479-1.968v-6.279a3.7,3.7,0,0,0-.479-2.022A2.056,2.056,0,0,0,799.317,4709.51Z" fill="#2d2e83"/>
          <path id="Path_201" data-name="Path 201" d="M888.481,4644.39a9.119,9.119,0,0,0,3.725-.852,5.277,5.277,0,0,0,2.766-3.405,4.969,4.969,0,0,0,2.767,2.607,9.816,9.816,0,0,0,2.766.479q3.512,0,4.9-1.809t1.383-5.533V4624.6c0-.78-.356-1.17-1.064-1.17h-3.4q-.957,0-.958,1.17v10.215q0,2.448-2.128,2.447a2.607,2.607,0,0,1-1.489-.426,2.052,2.052,0,0,1-.639-1.809v-9.045q0-1.168-.957-1.169h-3.406q-.957,0-.957,1.169v10a2.445,2.445,0,0,1-.639,1.81,2.166,2.166,0,0,1-1.6.638q-2.019,0-2.022-2.341v-8.726c0-.78-.282-1.171-.851-1.171h-3.511c-.708,0-1.064.391-1.064,1.171v9.79a7.937,7.937,0,0,0,1.649,5.267A5.831,5.831,0,0,0,888.481,4644.39Z" fill="#2d2e83"/>
          <path id="Path_202" data-name="Path 202" d="M889.174,4654.6a5.475,5.475,0,0,0-1.756,4.255,5.309,5.309,0,0,0,1.756,4.2,6.3,6.3,0,0,0,4.31,1.542,6.448,6.448,0,0,0,4.416-1.542,5.308,5.308,0,0,0,1.755-4.2,5.474,5.474,0,0,0-1.755-4.255,6.315,6.315,0,0,0-4.416-1.6A6.169,6.169,0,0,0,889.174,4654.6Z" fill="#2d2e83"/>
          <path id="Path_203" data-name="Path 203" d="M1023.084,4690.781a24.562,24.562,0,0,0-4.522-8.352,19.464,19.464,0,0,0-7.236-5.321,24.345,24.345,0,0,0-9.736-1.862A28.121,28.121,0,0,0,986,4679.981a51.266,51.266,0,0,0-13.141,12.61v-12.769a2.268,2.268,0,0,0-.692-1.968,3.43,3.43,0,0,0-1.968-.479h-6.6q-2.769,0-2.767,2.447v29.688H911.68a24.606,24.606,0,0,1-6.7-.745,11.224,11.224,0,0,1-4.363-2.341v-26.389q0-2.659-2.766-2.66h-6.385q-2.767,0-2.767,2.66v24.048q0,3.3-1.01,4.362t-4.1,1.065H829.643q-3.089,0-4.1-1.065t-1.011-4.362v-56.608q0-2.556-2.234-2.235l-7.662,1.064a2.982,2.982,0,0,0-1.542.691,2.67,2.67,0,0,0-.479,1.862v59.057q0,6.6,3.777,9.948t12.077,3.353h56.286q10.32,0,13.833-5.32a13.2,13.2,0,0,0,5.214,3.936,19.27,19.27,0,0,0,7.239,1.359c.069.007.14.025.208.025h90.125a47.519,47.519,0,0,0,10.853-1.065,17.563,17.563,0,0,0,7.236-3.351,12.78,12.78,0,0,0,3.991-6.012,29.248,29.248,0,0,0,1.223-9.045A35.258,35.258,0,0,0,1023.084,4690.781Zm-12.556,16.813q-1.916,1.915-7.023,1.916H972.753a79.283,79.283,0,0,1,5.959-8.459,61.521,61.521,0,0,1,6.864-7.289,34.648,34.648,0,0,1,7.448-5.161,17.153,17.153,0,0,1,7.821-1.969,10.332,10.332,0,0,1,8.513,3.831q3.086,3.831,3.085,10.534Q1012.443,4705.68,1010.528,4707.594Z" fill="#2d2e83"/>
        </g>
        <path id="Path_204" data-name="Path 204" d="M1191.579,4676.855a33.2,33.2,0,0,1,12.146-12.147,33.578,33.578,0,0,1,16.63-4.483,33.311,33.311,0,0,1,32.118,24.663l23.828,88.923a33.72,33.72,0,0,1,.828,4.275,33.239,33.239,0,0,1-65.064,12.921l-3.06-11.421L1197.8,4799h0l-.131.22a33.2,33.2,0,0,1-12.013,11.967l-.012-.019-.028.019a32.926,32.926,0,0,1-32.54.36c-.233-.11-.459-.23-.685-.36a33.227,33.227,0,0,1-11.75-11.521c-5.075-8.792,1.405-7.8,5.088-5.016,14.554,11.022,29.79,2.957,34.737-5.612l22.929-39.719a10.029,10.029,0,0,1,18.735,1.739l9.316,34.772a13.189,13.189,0,0,0,25.924-3.422,10.646,10.646,0,0,0-.44-3.423l-23.826-88.92a13.123,13.123,0,0,0-12.744-9.759,13.269,13.269,0,0,0-6.211,1.509,13.551,13.551,0,0,0-5.229,5.081l-34.145,59.143c-28.43,49.24-35.225-6.749-48.8,44.968a33.223,33.223,0,0,1-65.064-12.921,33.72,33.72,0,0,1,.828-4.275l23.828-88.923a33.158,33.158,0,0,1,48.065-20.54c5.047,2.431,10.054,7.7,12.829,12.507l15.01,26c-4.486,7.772-10.131,22.485-16.731,11.085-3.816-6.609-14.887-28.673-20.467-31.9a12.877,12.877,0,0,0-6.588-1.738,13.123,13.123,0,0,0-12.745,9.759l-23.825,88.92a13.966,13.966,0,0,0-.359,1.689,14.265,14.265,0,0,0-.081,1.734,13.185,13.185,0,0,0,25.923,3.422l6.967-26c8.377-31.259,28.413,2.952,44.478-24.876Z" fill="url(#linear-gradient)"/>
      </g>
    </g>
  </g>
</svg>
