<svg width="0" height="0" class="hidden">
  <symbol xmlns="http://www.w3.org/2000/svg" viewBox="0 0 81.548 87.793" id="eye">
    <g id="eye" transform="translate(-1223.133 -5290.244)">
      <g id="Group_30">
        <path id="Path_211" d="M1265.476,5353.7a41.66,41.66,0,0,1-13.162-2.016,81.1,81.1,0,0,1-25.282-13.028,29.948,29.948,0,0,1-2.991-2.773,2.285,2.285,0,0,1,.024-3.665,36.635,36.635,0,0,1,4.159-3.676,80.512,80.512,0,0,1,28.405-13.222,33.929,33.929,0,0,1,18.342,1,79.137,79.137,0,0,1,26.082,13.4,27.525,27.525,0,0,1,2.785,2.663c1.095,1.149,1.166,2.334-.042,3.37a80.675,80.675,0,0,1-7.956,6.348,75.011,75.011,0,0,1-22.555,10.147C1270.228,5353.046,1267.063,5353.418,1265.476,5353.7Zm-17.184-19.6a15.375,15.375,0,0,0,15.577,15.144c8.64,0,15.734-6.9,15.651-15.222a15.62,15.62,0,0,0-31.228.078Zm-1.053,10.85a18.806,18.806,0,0,1-3.394-10.843,19.939,19.939,0,0,1,3.228-10.925,68.192,68.192,0,0,0-18.6,10.852C1232.2,5337.587,1243.391,5344.109,1247.239,5344.956Zm51.99-10.784c-2.809-3.138-15.42-10.531-18.567-10.925,4.415,7.216,4.4,14.45-.151,21.9C1287.348,5342.162,1293.677,5338.917,1299.229,5334.172Z" fill="#2d2e83"></path>
        <path id="Path_212" d="M1266.445,5370.511c0,1.664.014,3.328,0,4.991-.018,1.59-.9,2.555-2.271,2.534a2.22,2.22,0,0,1-2.185-2.505q-.027-5.047,0-10.095a2.238,2.238,0,1,1,4.453-.029C1266.464,5367.108,1266.445,5368.81,1266.445,5370.511Z" fill="#2d2e83"></path>
        <path id="Path_213" d="M1265.793,5297.753c0,1.7.012,3.4,0,5.1a2.234,2.234,0,1,1-4.445.016q-.034-5.049,0-10.1c.01-1.6.907-2.561,2.274-2.532,1.344.028,2.166,1.014,2.174,2.63S1265.793,5296.127,1265.793,5297.753Z" fill="#2d2e83"></path>
        <path id="Path_214" d="M1298.044,5367.263a8.033,8.033,0,0,1-1.6,1.788,2,2,0,0,1-2.487-.455q-2.922-2.841-5.851-5.674c-.6-.578-1.211-1.138-1.779-1.742a2.188,2.188,0,0,1-.1-3.228,2.143,2.143,0,0,1,3.136.054q3.855,3.667,7.627,7.418A8.9,8.9,0,0,1,1298.044,5367.263Z" fill="#2d2e83"></path>
        <path id="Path_215" d="M1229.742,5367.232a8.9,8.9,0,0,1,1.054-1.835q3.766-3.754,7.624-7.417a2.172,2.172,0,0,1,3.143-.014,2.138,2.138,0,0,1-.061,3.135c-2.541,2.526-5.121,5.014-7.694,7.508a1.964,1.964,0,0,1-2.488.427A8.388,8.388,0,0,1,1229.742,5367.232Z" fill="#2d2e83"></path>
        <path id="Path_216" d="M1232.066,5298.725a10.25,10.25,0,0,1,1.827,1.069c2.468,2.331,4.9,4.7,7.328,7.074,1.154,1.127,1.294,2.432.4,3.393-.905.978-2.213.968-3.383-.143-2.516-2.39-4.987-4.827-7.477-7.244a2,2,0,0,1-.505-2.567A7.968,7.968,0,0,1,1232.066,5298.725Z" fill="#2d2e83"></path>
        <path id="Path_217" d="M1298.064,5301.08a9.709,9.709,0,0,1-1.069,1.762q-3.72,3.725-7.518,7.371a2.235,2.235,0,0,1-3.32.054,2.18,2.18,0,0,1,.246-3.218c2.472-2.437,4.97-4.848,7.45-7.278a2.058,2.058,0,0,1,2.568-.541A8.151,8.151,0,0,1,1298.064,5301.08Z" fill="#2d2e83"></path>
        <g id="Group_29">
          <g id="Group_28">
            <path id="Path_218" d="M1271.715,5334.106a7.839,7.839,0,0,1-15.674-.021,7.838,7.838,0,0,1,15.674.021Zm-7.831-3.28a3.249,3.249,0,1,0,3.392,3.21A3.3,3.3,0,0,0,1263.884,5330.826Z" fill="#36a9e1"></path>
          </g>
        </g>
      </g>
    </g>
  </symbol>
  <symbol xmlns="http://www.w3.org/2000/svg" viewBox="0 0 55.173 55.173" id="facebook">
    <path id="facebook" d="M1354.859,7104.624h0a27.587,27.587,0,0,0-27.587,27.587h0a27.587,27.587,0,0,0,27.587,27.586h0a27.586,27.586,0,0,0,27.586-27.586h0A27.587,27.587,0,0,0,1354.859,7104.624Zm9.11,30.863h-6.409v16.836h-7.742v-16.836h-6.424v-6.825h6.424v-2.493c0-9.225,3.847-14.071,12-14.071a13.393,13.393,0,0,1,4.5.728v6.754a15.435,15.435,0,0,0-3.56-.412,4.44,4.44,0,0,0-3.816,1.585q-1.38,1.587-1.38,5.5v2.411h8.764Z" transform="translate(-1327.272 -7104.624)" fill="#36a9e1"></path>
  </symbol>
  <symbol xmlns="http://www.w3.org/2000/svg" viewBox="0 0 81.577 81.538" id="goal">
    <g id="goal" transform="translate(-615.305 -5293.231)">
      <g id="Group_34">
        <path id="Path_219" d="M655.345,5293.231a40.06,40.06,0,0,1,12.829,1.87,1.967,1.967,0,0,1,1.56,2.2,1.867,1.867,0,0,1-1.714,1.717,5.771,5.771,0,0,1-1.6-.246c-2.91-.469-5.812-1.271-8.732-1.347-14.2-.369-25.351,5.463-32.862,17.47a36.31,36.31,0,0,0,2.976,42.456,35.147,35.147,0,0,0,22.157,12.823c13.279,2.044,24.629-1.925,33.658-11.935,6.967-7.723,9.789-16.961,9.07-27.269a60.668,60.668,0,0,0-1.275-6.985c-.062-.322-.182-.633-.233-.955a2.051,2.051,0,0,1,1.587-2.575,1.959,1.959,0,0,1,2.338,1.64,62.373,62.373,0,0,1,1.494,7.279,40.728,40.728,0,0,1-32.922,44.677,40.42,40.42,0,0,1-47.171-30.688c-3.545-15.465.817-28.864,12.441-39.665A38.893,38.893,0,0,1,655.345,5293.231Z" fill="#2d2e83"></path>
        <path id="Path_220" d="M656.309,5358.224a24.348,24.348,0,0,0,23.252-17.2,22.828,22.828,0,0,0,.97-8.539,2.209,2.209,0,0,1,1.974-2.658c1.035-.1,1.976.795,2.1,2.213a25.258,25.258,0,0,1-1.286,10.467c-3.042,8.907-8.922,15.084-17.837,18.266a28.449,28.449,0,0,1-33.394-11.938,28.355,28.355,0,0,1,6.759-37.425,28.463,28.463,0,0,1,17.6-5.972,8.048,8.048,0,0,1,1.845.17,2.189,2.189,0,0,1,1.787,2.388,2.118,2.118,0,0,1-2.391,1.622,23.943,23.943,0,0,0-9.786,1.381,24.421,24.421,0,0,0-15.921,20.941c-.492,8.108,2.186,14.945,8.284,20.3A23.524,23.524,0,0,0,656.309,5358.224Z" fill="#2d2e83"></path>
        <g id="Group_33">
          <g id="Group_32">
            <path id="Path_221" d="M684.708,5305.4c2.041,0,3.932-.006,5.823,0a2.061,2.061,0,0,1,1.738,3.446c-4.051,4.054-8.083,8.127-12.191,12.124a3.447,3.447,0,0,1-2.094.713c-1.893.1-3.8-.021-5.692.067a2.79,2.79,0,0,0-1.687.705c-4.146,4.063-8.243,8.176-12.358,12.271a5.62,5.62,0,0,1-.91.78,1.979,1.979,0,0,1-2.591-.272,1.934,1.934,0,0,1-.038-2.6,15.36,15.36,0,0,1,1.2-1.272c3.92-3.929,7.831-7.865,11.777-11.768a2.4,2.4,0,0,0,.777-1.926c-.047-1.861-.107-3.73.028-5.583a3.956,3.956,0,0,1,.93-2.318c3.789-3.9,7.672-7.712,11.51-11.566a2.186,2.186,0,0,1,2.556-.7,2.121,2.121,0,0,1,1.223,2.244C684.7,5301.571,684.708,5303.393,684.708,5305.4Zm1.085,4.089c-1.085,0-1.847.009-2.609,0-1.79-.027-2.506-.732-2.555-2.53-.021-.778,0-1.558,0-2.492a4.294,4.294,0,0,0-.554.351q-3.572,3.552-7.132,7.113c-.151.15-.358.348-.361.526-.027,1.694-.016,3.388-.016,5.147,1.568,0,2.992.05,4.408-.027a2.38,2.38,0,0,0,1.413-.59c2.23-2.156,4.409-4.366,6.6-6.562C685.2,5310.206,685.4,5309.954,685.793,5309.493Z" fill="#36a9e1"></path>
          </g>
        </g>
        <path id="Path_222" d="M656.237,5346.061a12.144,12.144,0,0,0,12.172-11.621c.037-.911.138-1.856,1.06-2.228a2.969,2.969,0,0,1,1.943-.05,1.9,1.9,0,0,1,1.1,2.077,16.239,16.239,0,0,1-22.642,14.542c-6.376-2.852-9.7-7.94-9.851-14.886a16.237,16.237,0,0,1,15.407-16.278,2.7,2.7,0,0,1,1.678.265,3.256,3.256,0,0,1,1.119,1.83,1.66,1.66,0,0,1-1.3,1.8,5.554,5.554,0,0,1-1.287.206,12.179,12.179,0,0,0,.6,24.342Z" fill="#2d2e83"></path>
      </g>
    </g>
  </symbol>
  <symbol xmlns="http://www.w3.org/2000/svg" viewBox="0 0 88.657 88" id="influencer">
    <g id="influencer" transform="translate(-912.672 -5985)">
      <path id="Path_6" d="M979.946,6045.653a1.815,1.815,0,0,0-1.6-1.233l-14.009-.9-5.66-13.412a1.816,1.816,0,0,0-3.361.035l-5.188,13.044-14.5,1.238a1.816,1.816,0,0,0-1.005,3.207l10.8,8.966-3.3,14.177a1.817,1.817,0,0,0,2.74,1.947l11.864-7.5,12.462,7.523a1.817,1.817,0,0,0,2.7-2l-3.469-13.6,11.005-9.529A1.816,1.816,0,0,0,979.946,6045.653Zm-14.763,9.469a1.816,1.816,0,0,0-.571,1.822l2.651,10.4-9.63-5.813a1.819,1.819,0,0,0-1.909.02l-9.068,5.735,2.553-10.955a1.818,1.818,0,0,0-.609-1.81l-8.256-6.852,11.207-.957a1.816,1.816,0,0,0,1.533-1.138l3.966-9.969,4.373,10.363a1.815,1.815,0,0,0,1.557,1.106l10.706.69Z" fill="#fff"></path>
      <path id="Path_7" d="M951.4,6044.9h0Z" fill="#36a9e1"></path>
      <path id="Path_8" d="M992.654,6062.252a1.812,1.812,0,0,1-.971-.281l-9.891-6.255-6.221,3.756a1.816,1.816,0,0,1-1.877-3.11l7.183-4.335a1.817,1.817,0,0,1,1.909.02l7.094,4.486-2.005-8.6a1.815,1.815,0,0,1,.609-1.809l6.459-5.361-8.8-.752a1.815,1.815,0,0,1-1.533-1.138l-3.1-7.8-3.435,8.138a1.818,1.818,0,0,1-1.556,1.106l-7.884.508a1.816,1.816,0,0,1-.234-3.624l6.764-.437,4.721-11.186a1.817,1.817,0,0,1,1.673-1.11h.019a1.818,1.818,0,0,1,1.669,1.145l4.325,10.874,12.1,1.033a1.816,1.816,0,0,1,1.005,3.207l-9.005,7.474,2.756,11.825a1.817,1.817,0,0,1-1.769,2.228Z" fill="#36a9e1"></path>
      <path id="Path_9" d="M921.346,6062.252a1.817,1.817,0,0,1-1.769-2.228l2.755-11.825-9-7.474a1.816,1.816,0,0,1,1.005-3.207l12.1-1.033,4.326-10.874a1.817,1.817,0,0,1,1.669-1.145,1.778,1.778,0,0,1,1.692,1.11l4.721,11.186,6.764.437a1.816,1.816,0,0,1-.234,3.624l-7.884-.508a1.818,1.818,0,0,1-1.556-1.106l-3.435-8.138-3.1,7.8a1.815,1.815,0,0,1-1.533,1.138l-8.8.752,6.459,5.361a1.813,1.813,0,0,1,.608,1.809l-2,8.6,7.094-4.486a1.817,1.817,0,0,1,1.909-.02l7.182,4.335a1.816,1.816,0,1,1-1.877,3.11l-6.221-3.756-9.89,6.255A1.812,1.812,0,0,1,921.346,6062.252Z" fill="#36a9e1"></path>
      <path id="Path_10" d="M972.952,6027.089a1.816,1.816,0,0,1-1.816-1.816v-9.607a6.036,6.036,0,0,0-6.03-6.029H948.893a6.036,6.036,0,0,0-6.03,6.029v9.607a1.816,1.816,0,0,1-3.632,0v-9.607a9.673,9.673,0,0,1,9.662-9.662h16.213a9.673,9.673,0,0,1,9.662,9.662v9.607A1.816,1.816,0,0,1,972.952,6027.089Z" fill="#36a9e1"></path>
      <path id="Path_11" d="M965.038,6026.7a1.816,1.816,0,0,1-1.816-1.816v-9a1.816,1.816,0,1,1,3.632,0v9A1.816,1.816,0,0,1,965.038,6026.7Z" fill="#fff"></path>
      <path id="Path_12" d="M948.962,6026.7a1.816,1.816,0,0,1-1.817-1.816v-9a1.816,1.816,0,1,1,3.633,0v9A1.816,1.816,0,0,1,948.962,6026.7Z" fill="#fff"></path>
      <path id="Path_13" d="M963.534,5987.22a10.017,10.017,0,0,0-6.445-2.22c-4.8,0-9.666,3.112-9.666,9.059,0,5.894,4.117,10.338,9.576,10.338s9.576-4.444,9.576-10.338A8.608,8.608,0,0,0,963.534,5987.22ZM957,6000.765c-3.444,0-5.944-2.82-5.944-6.706,0-3.728,3.128-5.427,6.034-5.427s5.854,1.678,5.854,5.427C962.943,5997.945,960.443,6000.765,957,6000.765Z" fill="#36a9e1"></path>
    </g>
  </symbol>
  <symbol xmlns="http://www.w3.org/2000/svg" viewBox="0 0 55.173 55.173" id="instagram">
    <g id="instagram" transform="translate(-1396.033 -7104.624)">
      <path id="Path_206" d="M1435.675,7116.084h-24.111a4.075,4.075,0,0,0-4.071,4.071v24.111a4.075,4.075,0,0,0,4.071,4.071h24.111a4.075,4.075,0,0,0,4.071-4.071v-24.111A4.075,4.075,0,0,0,1435.675,7116.084Zm-5.485,22.7a9.291,9.291,0,1,1,2.722-6.57A9.229,9.229,0,0,1,1430.19,7138.781Zm4.96-17.863a1.783,1.783,0,1,1,1.783-1.783A1.783,1.783,0,0,1,1435.15,7120.918Z" fill="#36a9e1"></path>
      <circle id="Ellipse_3" cx="7.311" cy="7.311" r="7.311" transform="translate(1413.28 7132.21) rotate(-45)" fill="#36a9e1"></circle>
      <path id="Path_207" d="M1423.62,7104.624h0a27.586,27.586,0,1,0,0,55.173h0a27.587,27.587,0,0,0,27.586-27.586h0A27.587,27.587,0,0,0,1423.62,7104.624Zm18.107,39.642a6.059,6.059,0,0,1-6.052,6.052h-24.111a6.059,6.059,0,0,1-6.052-6.052v-24.111a6.059,6.059,0,0,1,6.052-6.052h24.111a6.059,6.059,0,0,1,6.052,6.052Z" fill="#36a9e1"></path>
    </g>
  </symbol>
  <symbol xmlns="http://www.w3.org/2000/svg" viewBox="0 0 55.173 55.173" id="linkedin">
    <path id="linkedin" d="M1561.141,7104.624h0a27.586,27.586,0,0,0,0,55.173h0a27.587,27.587,0,0,0,27.587-27.586h0A27.587,27.587,0,0,0,1561.141,7104.624Zm-8.468,42.886h-6.457v-20.587h6.457Zm-3.229-23.254a3.743,3.743,0,1,1,3.743-3.743A3.742,3.742,0,0,1,1549.444,7124.256Zm27.137,23.4h-6.456v-12a3.424,3.424,0,0,0-3.65-3.532,3.15,3.15,0,0,0-2.872,1.61,8.409,8.409,0,0,0-.59,4.158v9.672h-6.457V7126.97h6.176v2.755a4.6,4.6,0,0,1,.281-.4,7.533,7.533,0,0,1,6.363-2.913c.256.01.505.029.749.056,4.121.445,6.456,3.163,6.456,7.757Z" transform="translate(-1533.555 -7104.624)" fill="#36a9e1"></path>
  </symbol>
  <symbol xmlns="http://www.w3.org/2000/svg"
    xmlns:xlink="http://www.w3.org/1999/xlink" viewBox="0 0 630.208 261.562" id="main_logo">
    <defs>
      <linearGradient id="linear-gradient" x1="1.025" y1="1.309" x2="-0.615" y2="-0.978" gradientUnits="objectBoundingBox">
        <stop offset="0.247" stop-color="#36a9e1"></stop>
        <stop offset="0.657" stop-color="#2d2e83"></stop>
      </linearGradient>
    </defs>
    <g id="Main_Logo" transform="translate(-647.237 -4623.428)">
      <g id="Group_20">
        <g id="Group_15">
          <path id="Path_174" d="M697.249,4757.3a6.292,6.292,0,0,0,4.309-1.543,5.3,5.3,0,0,0,1.755-4.2,5.473,5.473,0,0,0-1.755-4.256,6.167,6.167,0,0,0-4.309-1.6,6.31,6.31,0,0,0-4.416,1.6,5.474,5.474,0,0,0-1.756,4.256,5.3,5.3,0,0,0,1.756,4.2A6.441,6.441,0,0,0,697.249,4757.3Z" fill="#2d2e83"></path>
          <path id="Path_175" d="M712.89,4757.3a6.3,6.3,0,0,0,4.31-1.543,5.307,5.307,0,0,0,1.756-4.2,5.477,5.477,0,0,0-1.756-4.256,6.169,6.169,0,0,0-4.31-1.6,6.307,6.307,0,0,0-4.415,1.6,5.474,5.474,0,0,0-1.756,4.256,5.3,5.3,0,0,0,1.756,4.2A6.439,6.439,0,0,0,712.89,4757.3Z" fill="#2d2e83"></path>
          <path id="Path_176" d="M735.235,4825.723a6.32,6.32,0,0,0-4.416,1.595,5.473,5.473,0,0,0-1.756,4.257,5.306,5.306,0,0,0,1.756,4.2,6.443,6.443,0,0,0,4.416,1.543,6.292,6.292,0,0,0,4.309-1.543,5.305,5.305,0,0,0,1.756-4.2,5.473,5.473,0,0,0-1.756-4.257A6.175,6.175,0,0,0,735.235,4825.723Z" fill="#2d2e83"></path>
          <path id="Path_177" d="M750.876,4825.723a6.321,6.321,0,0,0-4.416,1.595,5.475,5.475,0,0,0-1.755,4.257,5.308,5.308,0,0,0,1.755,4.2,6.444,6.444,0,0,0,4.416,1.543,6.293,6.293,0,0,0,4.31-1.543,5.309,5.309,0,0,0,1.756-4.2,5.476,5.476,0,0,0-1.756-4.257A6.175,6.175,0,0,0,750.876,4825.723Z" fill="#2d2e83"></path>
          <path id="Path_178" d="M757.367,4769.114h-6.384q-2.767,0-2.767,2.66v24.048q0,3.3-1.01,4.364t-4.1,1.064H724.595v-11.492a25.69,25.69,0,0,0-1.49-9.2,17.094,17.094,0,0,0-4.2-6.438,16.9,16.9,0,0,0-6.544-3.777,27.533,27.533,0,0,0-8.406-1.224q-10,0-15.589,5.906t-5.586,15.695q0,11.493,5.693,16.865t16.014,5.374h7.555q-1.811,5.747-8.566,8.832t-18.036,3.085q-26.071,0-26.069-16.387a27.562,27.562,0,0,1,.957-6.809,37,37,0,0,1,2.767-7.342,3.388,3.388,0,0,0,.532-2.5,3.144,3.144,0,0,0-1.809-1.436l-5.107-2.341q-1.812-.743-2.661-.213a5.508,5.508,0,0,0-1.7,2.234,52.312,52.312,0,0,0-3.778,9.844,36.227,36.227,0,0,0-1.33,9.416q0,13.407,10,20.218t28.092,6.809q17.023,0,27.24-5.8a22.429,22.429,0,0,0,11.705-17.61h20q8.3,0,12.077-3.352t3.778-9.949v-27.879Q760.134,4769.116,757.367,4769.114Zm-44.689,32.136H706.4q-6.064,0-8.778-2.129t-2.713-8.513a11.15,11.15,0,0,1,2.287-7.341q2.287-2.766,7.076-2.767,4.47,0,6.438,2.5a10.457,10.457,0,0,1,1.969,6.65Z" fill="#2d2e83"></path>
          <path id="Path_179" d="M945.812,4756.346a6.294,6.294,0,0,0,4.309-1.543,5.307,5.307,0,0,0,1.756-4.2,5.469,5.469,0,0,0-1.756-4.256,6.165,6.165,0,0,0-4.309-1.6,6.309,6.309,0,0,0-4.416,1.6,5.469,5.469,0,0,0-1.756,4.256,5.307,5.307,0,0,0,1.756,4.2A6.443,6.443,0,0,0,945.812,4756.346Z" fill="#2d2e83"></path>
          <path id="Path_180" d="M930.17,4756.346a6.294,6.294,0,0,0,4.309-1.543,5.307,5.307,0,0,0,1.756-4.2,5.469,5.469,0,0,0-1.756-4.256,6.165,6.165,0,0,0-4.309-1.6,6.308,6.308,0,0,0-4.416,1.6A5.469,5.469,0,0,0,924,4750.6a5.307,5.307,0,0,0,1.756,4.2A6.443,6.443,0,0,0,930.17,4756.346Z" fill="#2d2e83"></path>
          <path id="Path_181" d="M1016.676,4736.979l-7.661,1.064a3.006,3.006,0,0,0-1.543.691,2.677,2.677,0,0,0-.479,1.864v55.224q0,3.3-1.011,4.364t-4.1,1.064h-8.936a24.56,24.56,0,0,1-6.7-.746,11.221,11.221,0,0,1-4.363-2.34v-58.95q0-2.552-2.235-2.235l-7.661,1.064a3.009,3.009,0,0,0-1.543.691,2.683,2.683,0,0,0-.479,1.864v55.224q0,3.3-1.01,4.364t-4.1,1.064h-10a24.571,24.571,0,0,1-6.7-.746,11.225,11.225,0,0,1-4.362-2.34v-26.39q0-2.658-2.767-2.66h-6.384q-2.769,0-2.767,2.66v24.048q0,3.3-1.011,4.364t-4.1,1.064h-10a26.5,26.5,0,0,1-6.65-.692,10.076,10.076,0,0,1-4.416-2.394,5.746,5.746,0,0,0,.106-1.117v-25.379a2.437,2.437,0,0,0-.692-2.022,3.176,3.176,0,0,0-1.968-.532h-6.916a2.755,2.755,0,0,0-1.81.532,2.557,2.557,0,0,0-.638,2.022v22.665a9.115,9.115,0,0,1-1.383,5.161q-1.384,2.074-5.108,2.074a11.616,11.616,0,0,1-4.2-.8,13.449,13.449,0,0,1-4.1-2.607v-16.92a2.55,2.55,0,0,0-.638-2.021,2.942,2.942,0,0,0-1.915-.532h-6.7a3.172,3.172,0,0,0-1.968.532,2.427,2.427,0,0,0-.692,2.021v13.089a9.107,9.107,0,0,1-1.384,5.161q-1.383,2.074-5.107,2.074a13.148,13.148,0,0,1-8.406-3.3v-17.026a2.553,2.553,0,0,0-.638-2.021,2.945,2.945,0,0,0-1.916-.532H842.7a2.982,2.982,0,0,0-1.863.532,2.431,2.431,0,0,0-.691,2.021v13.94q0,6.066-5.959,6.066H814.4v-11.492a25.69,25.69,0,0,0-1.49-9.2,17.1,17.1,0,0,0-4.2-6.438,16.913,16.913,0,0,0-6.545-3.777,27.538,27.538,0,0,0-8.406-1.224q-10,0-15.589,5.906t-5.586,15.695q0,11.493,5.693,16.865t16.014,5.374h5.853a19.7,19.7,0,0,1-5.48,6.97,61.656,61.656,0,0,1-10.056,6.437,5.351,5.351,0,0,0-1.968,1.65,1.912,1.912,0,0,0,.159,1.968l2.979,5.427q1.278,2.339,3.512,1.17a99.7,99.7,0,0,0,9.9-5.586,45.394,45.394,0,0,0,6.969-5.48,25.55,25.55,0,0,0,4.523-5.852,26.325,26.325,0,0,0,2.553-6.7h22.345a22.02,22.02,0,0,0,8.832-1.543,12.526,12.526,0,0,0,5.427-4.309,14.712,14.712,0,0,0,6.118,4.416,19.649,19.649,0,0,0,7.183,1.436,16.651,16.651,0,0,0,7.821-1.7,13.745,13.745,0,0,0,5.161-4.576,16.743,16.743,0,0,0,6.171,4.735,18.831,18.831,0,0,0,7.661,1.543,16.976,16.976,0,0,0,7.875-1.7,13.647,13.647,0,0,0,5.214-4.576c2.531,4.039,6.9,6.109,13.065,6.251a2.3,2.3,0,0,0,.235.027h11.6q10.32,0,13.833-5.32a13.2,13.2,0,0,0,5.214,3.936,19.259,19.259,0,0,0,7.239,1.36c.069.006.14.024.208.024h11.6q10.32,0,13.833-5.32a13.2,13.2,0,0,0,5.214,3.936,19.259,19.259,0,0,0,7.239,1.36c.07.006.14.024.208.024h10.535q8.3,0,12.077-3.352t3.777-9.949v-60.439Q1018.91,4736.661,1016.676,4736.979ZM802.482,4801.25h-6.277q-6.066,0-8.779-2.129t-2.714-8.513a11.151,11.151,0,0,1,2.288-7.341q2.288-2.766,7.076-2.767,4.47,0,6.438,2.5a10.457,10.457,0,0,1,1.968,6.65Z" fill="#2d2e83"></path>
        </g>
        <g id="Group_19">
          <g id="Group_17">
            <g id="Group_16">
              <path id="Path_182" d="M731.379,4852.1a1.03,1.03,0,0,1,1.158-1.11h2.846a1.723,1.723,0,0,1,1.061.265,2.1,2.1,0,0,1,.579.8l11.142,23.828h.1l10.177-23.828a1.959,1.959,0,0,1,.555-.82,1.622,1.622,0,0,1,.989-.242h2.846a.987.987,0,0,1,1.109,1.062l1.447,31.015a1.443,1.443,0,0,1-.193.964,1.057,1.057,0,0,1-.917.337h-3.906c-.515,0-.845-.111-.989-.337a2.787,2.787,0,0,1-.266-1.255l-.675-19.583h-.1l-8.2,20.308a1.611,1.611,0,0,1-.507.7,1.488,1.488,0,0,1-.8.168h-1.688a2.046,2.046,0,0,1-.916-.168,1.375,1.375,0,0,1-.579-.748l-9.116-20.259h-.1l-.434,19.97q0,.82-.314,1.013a1.942,1.942,0,0,1-.988.192h-3.28q-1.3,0-1.254-1.254Z" fill="#36a9e1"></path>
              <path id="Path_183" d="M781.013,4851.95a2.077,2.077,0,0,1,.482-.7,1.173,1.173,0,0,1,.82-.265h3.859a1.312,1.312,0,0,1,1.35.869l11.866,31.255a1.078,1.078,0,0,1,0,.893.744.744,0,0,1-.723.361h-4.39a1.588,1.588,0,0,1-1.085-.289,2.445,2.445,0,0,1-.555-.868l-2.508-7.091h-12.2l-2.508,7.237a1.617,1.617,0,0,1-.434.747,1.251,1.251,0,0,1-.868.264h-4.148c-.386,0-.635-.111-.748-.337a1.085,1.085,0,0,1,.024-.868Zm7.476,19.488-3.425-10.178-.964-3.136H784l-1.013,3.184-3.425,10.13Z" fill="#36a9e1"></path>
              <path id="Path_184" d="M826.835,4882.916a1.568,1.568,0,0,1,.29,1.063c-.065.257-.322.384-.772.384H822.06a2.273,2.273,0,0,1-1.134-.217,2.24,2.24,0,0,1-.7-.748l-6.946-11.334h-3.714v11.094q0,1.206-1.109,1.2H804.5q-1.156,0-1.157-1.2v-30.773a1.818,1.818,0,0,1,.241-1.11,1.393,1.393,0,0,1,1.061-.29h7.139q1.591,0,3.159.145a18.827,18.827,0,0,1,3.039.53,12.111,12.111,0,0,1,2.749,1.086,8.128,8.128,0,0,1,2.244,1.809,9.193,9.193,0,0,1,1.736,3.062,11.454,11.454,0,0,1,.579,3.691,10.311,10.311,0,0,1-1.665,5.837,10.2,10.2,0,0,1-4.558,3.761Zm-7.862-21.512q0-3.135-1.93-4.414a9.032,9.032,0,0,0-5.064-1.277h-2.412v11.672h2.991a6.87,6.87,0,0,0,4.654-1.52A5.57,5.57,0,0,0,818.973,4861.4Z" fill="#36a9e1"></path>
              <path id="Path_185" d="M850.952,4884.363a2.624,2.624,0,0,1-1.35-.289,3.611,3.611,0,0,1-.965-.916L838.218,4869.8h-.1v13.361q0,1.206-1.158,1.2H833.1a1.065,1.065,0,0,1-1.206-1.2v-31.015q0-1.158,1.206-1.158h3.859a1.332,1.332,0,0,1,.869.242,1.159,1.159,0,0,1,.289.916v13.65h.1l9.937-13.939a2.554,2.554,0,0,1,.747-.676,2.264,2.264,0,0,1,1.037-.193h3.714a.939.939,0,0,1,.7.193.643.643,0,0,1,.168.434,1.652,1.652,0,0,1-.385.917L843.283,4867.1l12.589,15.483a2.727,2.727,0,0,1,.482.675,1.3,1.3,0,0,1,.1.482.6.6,0,0,1-.193.435,1.026,1.026,0,0,1-.723.192Z" fill="#36a9e1"></path>
              <path id="Path_186" d="M879.217,4868.639a1.154,1.154,0,0,1-.24.8,1.231,1.231,0,0,1-.917.264H866.87v9.648H879.8q1.206,0,1.206,1.109v2.749a1.022,1.022,0,0,1-1.157,1.157h-17.9a1.613,1.613,0,0,1-1.012-.24,1.394,1.394,0,0,1-.29-1.061v-30.871c0-.8.37-1.206,1.109-1.206h18.185c.482,0,.788.1.916.29a1.1,1.1,0,0,1,.1.82l-.338,2.893a.984.984,0,0,1-.482.845,3.048,3.048,0,0,1-1.157.169H866.87v8.73h11.19a1.224,1.224,0,0,1,.917.266,1.15,1.15,0,0,1,.24.795Z" fill="#36a9e1"></path>
              <path id="Path_187" d="M893.833,4856h-9.021q-1.109,0-1.109-1.158V4852q0-1.014,1.061-1.013h24.455a2.017,2.017,0,0,1,1.23.265.993.993,0,0,1,.218.941l-.338,2.8a1.109,1.109,0,0,1-.434.8,2.014,2.014,0,0,1-1.062.217H900.1v27.156q0,1.206-1.158,1.2h-3.906a1.065,1.065,0,0,1-1.206-1.2Z" fill="#36a9e1"></path>
              <path id="Path_188" d="M927.307,4854.023a1.045,1.045,0,0,1-.241.8,1.133,1.133,0,0,1-.772.217h-2.749v25.276H926.2a.948.948,0,0,1,.772.289,1.094,1.094,0,0,1,.241.723v2.073c0,.645-.29.965-.868.965H914.766c-.643,0-.964-.3-.964-.916v-2.17a.852.852,0,0,1,.964-.964h2.6v-25.276h-2.8a.852.852,0,0,1-.964-.965v-2.122a1.092,1.092,0,0,1,.217-.675.761.761,0,0,1,.651-.29h11.817a1,1,0,0,1,.772.265.936.936,0,0,1,.241.652Z" fill="#36a9e1"></path>
              <path id="Path_189" d="M960.541,4850.985a1.109,1.109,0,0,1,1.254,1.254v30.823a1.323,1.323,0,0,1-.314,1.061,1.353,1.353,0,0,1-.844.24H957.55a2.3,2.3,0,0,1-1.977-1.011l-15.725-21.514h-.1v21.271a1.108,1.108,0,0,1-1.253,1.254h-3.474a1.629,1.629,0,0,1-.988-.24,1.17,1.17,0,0,1-.314-.965v-30.871a1.329,1.329,0,0,1,.314-1.037,1.519,1.519,0,0,1,.988-.265h3.136a1.859,1.859,0,0,1,.916.193,2.563,2.563,0,0,1,.724.724l15.869,21.8h.1v-21.465a1.108,1.108,0,0,1,1.254-1.254Z" fill="#36a9e1"></path>
              <path id="Path_190" d="M995.028,4880.891a1.988,1.988,0,0,1-.241,1.086,2.743,2.743,0,0,1-.917.747,14.288,14.288,0,0,1-2.291.94,24.54,24.54,0,0,1-2.725.7,29.168,29.168,0,0,1-2.942.435q-1.5.146-2.846.144a16.789,16.789,0,0,1-6.681-1.254,14,14,0,0,1-4.944-3.5,14.831,14.831,0,0,1-3.063-5.4,22.417,22.417,0,0,1-1.037-7.018,19.987,19.987,0,0,1,1.182-6.97,16.529,16.529,0,0,1,3.3-5.523,14.873,14.873,0,0,1,5.137-3.618,16.812,16.812,0,0,1,6.729-1.3,22.786,22.786,0,0,1,4.486.435,20.707,20.707,0,0,1,4.341,1.4q.675.291.7.651a1.7,1.7,0,0,1-.169.8l-1.157,2.99q-.339.82-1.351.386a17.967,17.967,0,0,0-3.039-.965,15.322,15.322,0,0,0-3.521-.435,10.242,10.242,0,0,0-3.762.7,8.129,8.129,0,0,0-3.039,2.05,10.6,10.6,0,0,0-2.364,3.907,15.87,15.87,0,0,0-.819,5.306q0,5.643,2.46,8.9a8.1,8.1,0,0,0,6.849,3.255,20.889,20.889,0,0,0,2.99-.217,10.972,10.972,0,0,0,2.46-.6V4869.7h-4.293a1.235,1.235,0,0,1-.8-.217,1.06,1.06,0,0,1-.265-.844V4865.7a.868.868,0,0,1,.29-.771,1.469,1.469,0,0,1,.82-.194h9.357a1.432,1.432,0,0,1,.893.217,1.14,1.14,0,0,1,.265.893Z" fill="#36a9e1"></path>
              <path id="Path_191" d="M1014.369,4852.1a1.03,1.03,0,0,1,1.158-1.11h2.846a1.725,1.725,0,0,1,1.061.265,2.1,2.1,0,0,1,.579.8l11.142,23.828h.1l10.178-23.828a1.951,1.951,0,0,1,.555-.82,1.62,1.62,0,0,1,.989-.242h2.845a.988.988,0,0,1,1.11,1.062l1.447,31.015a1.455,1.455,0,0,1-.193.964,1.059,1.059,0,0,1-.917.337h-3.907c-.514,0-.844-.111-.988-.337a2.787,2.787,0,0,1-.266-1.255l-.675-19.583h-.1l-8.2,20.308a1.6,1.6,0,0,1-.506.7,1.488,1.488,0,0,1-.8.168h-1.688a2.043,2.043,0,0,1-.916-.168,1.381,1.381,0,0,1-.58-.748l-9.116-20.259h-.1l-.434,19.97q0,.82-.314,1.013a1.947,1.947,0,0,1-.989.192h-3.28q-1.3,0-1.253-1.254Z" fill="#36a9e1"></path>
              <path id="Path_192" d="M1064,4851.95a2.078,2.078,0,0,1,.482-.7,1.175,1.175,0,0,1,.82-.265h3.859a1.315,1.315,0,0,1,1.351.869l11.865,31.255a1.078,1.078,0,0,1,0,.893.744.744,0,0,1-.723.361h-4.39a1.589,1.589,0,0,1-1.085-.289,2.46,2.46,0,0,1-.555-.868l-2.508-7.091h-12.2l-2.508,7.237a1.619,1.619,0,0,1-.435.747,1.251,1.251,0,0,1-.868.264h-4.148c-.386,0-.635-.111-.748-.337a1.089,1.089,0,0,1,.024-.868Zm7.476,19.488-3.424-10.178-.965-3.136h-.1l-1.013,3.184-3.424,10.13Z" fill="#36a9e1"></path>
              <path id="Path_193" d="M1105.387,4884.363a2.625,2.625,0,0,1-1.351-.289,3.607,3.607,0,0,1-.964-.916l-10.419-13.361h-.1v13.361q0,1.206-1.158,1.2h-3.859a1.065,1.065,0,0,1-1.206-1.2v-31.015q0-1.158,1.206-1.158h3.859a1.328,1.328,0,0,1,.868.242,1.156,1.156,0,0,1,.29.916v13.65h.1l9.936-13.939a2.554,2.554,0,0,1,.748-.676,2.258,2.258,0,0,1,1.037-.193h3.714a.942.942,0,0,1,.7.193.643.643,0,0,1,.168.434,1.655,1.655,0,0,1-.386.917l-10.852,14.567,12.589,15.483a2.726,2.726,0,0,1,.482.675,1.3,1.3,0,0,1,.1.482.6.6,0,0,1-.193.435,1.028,1.028,0,0,1-.724.192Z" fill="#36a9e1"></path>
              <path id="Path_194" d="M1133.652,4868.639a1.154,1.154,0,0,1-.241.8,1.229,1.229,0,0,1-.916.264H1121.3v9.648h12.927q1.2,0,1.206,1.109v2.749a1.022,1.022,0,0,1-1.158,1.157h-17.9a1.618,1.618,0,0,1-1.013-.24,1.4,1.4,0,0,1-.289-1.061v-30.871c0-.8.369-1.206,1.109-1.206h18.184c.483,0,.788.1.917.29a1.109,1.109,0,0,1,.1.82l-.338,2.893c-.065.451-.225.733-.483.845a3.041,3.041,0,0,1-1.157.169H1121.3v8.73h11.191a1.222,1.222,0,0,1,.916.266,1.15,1.15,0,0,1,.241.795Z" fill="#36a9e1"></path>
              <path id="Path_195" d="M1164.522,4882.916a1.568,1.568,0,0,1,.29,1.063c-.065.257-.323.384-.772.384h-4.293a2.273,2.273,0,0,1-1.134-.217,2.24,2.24,0,0,1-.7-.748l-6.946-11.334h-3.714v11.094q0,1.206-1.109,1.2h-3.956q-1.156,0-1.157-1.2v-30.773a1.819,1.819,0,0,1,.241-1.11,1.393,1.393,0,0,1,1.061-.29h7.139q1.592,0,3.159.145a18.828,18.828,0,0,1,3.039.53,12.114,12.114,0,0,1,2.749,1.086,8.128,8.128,0,0,1,2.244,1.809,9.191,9.191,0,0,1,1.736,3.062,11.454,11.454,0,0,1,.579,3.691,10.311,10.311,0,0,1-1.665,5.837,10.2,10.2,0,0,1-4.558,3.761Zm-7.862-21.512q0-3.135-1.93-4.414a9.032,9.032,0,0,0-5.064-1.277h-2.412v11.672h2.991a6.871,6.871,0,0,0,4.654-1.52A5.57,5.57,0,0,0,1156.66,4861.4Z" fill="#36a9e1"></path>
              <path id="Path_196" d="M1190.183,4874.62a10.014,10.014,0,0,1-.941,4.439,9.351,9.351,0,0,1-2.556,3.23,11.413,11.413,0,0,1-3.739,1.979,14.75,14.75,0,0,1-4.485.674,29.67,29.67,0,0,1-4.607-.385,25.61,25.61,0,0,1-4.606-1.159q-.677-.24-.8-.627a1.422,1.422,0,0,1,.072-.916l1.013-3.134q.192-.627.579-.748a1.587,1.587,0,0,1,1.013.121,27.148,27.148,0,0,0,3.521,1.037,16.772,16.772,0,0,0,3.666.41,8.167,8.167,0,0,0,1.954-.242,5.552,5.552,0,0,0,1.785-.772,4.446,4.446,0,0,0,1.3-1.326,3.565,3.565,0,0,0,.507-1.953,3.487,3.487,0,0,0-1.061-2.678,9.948,9.948,0,0,0-2.46-1.664l-6.271-3.135a10.9,10.9,0,0,1-4.148-3.353,8.109,8.109,0,0,1-1.543-4.943,7.594,7.594,0,0,1,.988-3.908,9.294,9.294,0,0,1,2.581-2.845,11.923,11.923,0,0,1,3.57-1.761,13.689,13.689,0,0,1,4-.6,24.138,24.138,0,0,1,4.462.386,19.808,19.808,0,0,1,4.173,1.3,1.779,1.779,0,0,1,.868.627,1.143,1.143,0,0,1-.048.965l-1.158,2.941c-.161.419-.37.651-.627.7a1.731,1.731,0,0,1-.964-.168,19.719,19.719,0,0,0-3.232-1.086,13.418,13.418,0,0,0-3.136-.41,8.03,8.03,0,0,0-1.736.194,4.981,4.981,0,0,0-1.567.627,3.471,3.471,0,0,0-1.134,1.133,3.191,3.191,0,0,0-.434,1.712,2.81,2.81,0,0,0,.314,1.326,4.262,4.262,0,0,0,.8,1.086,5.158,5.158,0,0,0,1.109.844q.625.363,1.2.651l5.355,2.6a14.16,14.16,0,0,1,4.654,3.449A7.963,7.963,0,0,1,1190.183,4874.62Z" fill="#36a9e1"></path>
              <path id="Path_197" d="M1231.326,4881.47a1.066,1.066,0,0,1-.675,1.495,30.545,30.545,0,0,1-4.678,1.471,22.624,22.624,0,0,1-4.92.506,16.122,16.122,0,0,1-6.657-1.278,12.889,12.889,0,0,1-4.727-3.545,15.178,15.178,0,0,1-2.822-5.426,24,24,0,0,1-.941-6.874,21.263,21.263,0,0,1,1.086-6.9,16.683,16.683,0,0,1,3.111-5.547,14.162,14.162,0,0,1,4.919-3.69,15.46,15.46,0,0,1,6.512-1.327,20.376,20.376,0,0,1,9.069,2.027,1.667,1.667,0,0,1,.723.554,1.15,1.15,0,0,1-.1.892l-1.109,3.039q-.288.915-1.206.435a14.683,14.683,0,0,0-3.5-1.352,15.437,15.437,0,0,0-3.5-.386,8.131,8.131,0,0,0-4.27,1.062,9.094,9.094,0,0,0-2.893,2.749,11.579,11.579,0,0,0-1.641,3.858,19.1,19.1,0,0,0-.506,4.342,18.73,18.73,0,0,0,.627,5.041,11.309,11.309,0,0,0,1.833,3.834,8.03,8.03,0,0,0,2.966,2.436,9.088,9.088,0,0,0,3.98.844,16.964,16.964,0,0,0,6.946-1.544,1.184,1.184,0,0,1,.771-.168c.194.048.37.25.531.6Z" fill="#36a9e1"></path>
              <path id="Path_198" d="M1257.229,4872.643a14.792,14.792,0,0,1-.773,4.847,11.061,11.061,0,0,1-2.291,3.907,10.615,10.615,0,0,1-3.714,2.6,12.572,12.572,0,0,1-4.992.94,12.786,12.786,0,0,1-5.113-.94,9.511,9.511,0,0,1-3.57-2.6,11.143,11.143,0,0,1-2.1-3.907,16.356,16.356,0,0,1-.7-4.9,14.783,14.783,0,0,1,.772-4.847,10.616,10.616,0,0,1,5.98-6.464,12.521,12.521,0,0,1,5.017-.94,13.068,13.068,0,0,1,5.113.917,9.437,9.437,0,0,1,3.57,2.556,10.874,10.874,0,0,1,2.1,3.907A16.621,16.621,0,0,1,1257.229,4872.643Zm-6.031,0a15.267,15.267,0,0,0-.264-2.87,7.874,7.874,0,0,0-.893-2.46,4.856,4.856,0,0,0-1.688-1.737,5,5,0,0,0-2.653-.65,5.259,5.259,0,0,0-2.7.65,5.057,5.057,0,0,0-1.761,1.689,7.319,7.319,0,0,0-.94,2.411,13.6,13.6,0,0,0-.29,2.822,15.6,15.6,0,0,0,.265,2.9,8.107,8.107,0,0,0,.893,2.507,4.986,4.986,0,0,0,1.688,1.786,4.851,4.851,0,0,0,2.653.674,5.119,5.119,0,0,0,2.677-.651,5.2,5.2,0,0,0,1.76-1.736,7.524,7.524,0,0,0,.965-2.46A13.833,13.833,0,0,0,1251.2,4872.643Z" fill="#36a9e1"></path>
              <path id="Path_199" d="M1269,4881.662a3.045,3.045,0,0,1-.313,1.424,3.658,3.658,0,0,1-.8,1.037,3.209,3.209,0,0,1-1.11.65,3.724,3.724,0,0,1-2.507,0,3.2,3.2,0,0,1-1.11-.65,3.641,3.641,0,0,1-.8-1.037,3.034,3.034,0,0,1-.313-1.424,3.069,3.069,0,0,1,.313-1.4,3.526,3.526,0,0,1,.8-1.061,3.2,3.2,0,0,1,1.11-.652,3.732,3.732,0,0,1,2.507,0,3.215,3.215,0,0,1,1.11.652,3.542,3.542,0,0,1,.8,1.061A3.081,3.081,0,0,1,1269,4881.662Z" fill="#36a9e1"></path>
            </g>
          </g>
          <g id="Group_18">
            <path id="Path_200" d="M799.317,4709.51H775.482a21.939,21.939,0,0,1-4.682-6.757,16.612,16.612,0,0,1-1.383-6.331,9.692,9.692,0,0,1,2.5-6.917q2.5-2.659,7.928-2.66a23.713,23.713,0,0,1,10,2.553,3.183,3.183,0,0,0,2.075.426,2.3,2.3,0,0,0,1.224-1.383l2.553-5.64q.744-1.7-1.17-2.873a28.387,28.387,0,0,0-15.749-4.469,26.438,26.438,0,0,0-8.512,1.33,20.623,20.623,0,0,0-6.863,3.831,17.459,17.459,0,0,0-4.576,6.118,19.811,19.811,0,0,0-1.649,8.3,22.873,22.873,0,0,0,1.649,8.3,26.678,26.678,0,0,0,5.054,8.087q-7.021,2.131-10.374,6.917a20.461,20.461,0,0,0-3.352,12.023q0,10.639,7.182,16.174t20.7,5.533a61.356,61.356,0,0,0,11.119-1.01,46.441,46.441,0,0,0,9.524-2.714,4.3,4.3,0,0,0,2.021-1.49,2.885,2.885,0,0,0,0-2.447l-2.021-5.214a2.822,2.822,0,0,0-1.064-1.543,3.23,3.23,0,0,0-2.342.16,58.8,58.8,0,0,1-16.812,2.874q-7.343,0-11.705-2.555a8.317,8.317,0,0,1-4.362-7.661q0-4.79,3.511-7.023t11.386-2.234h22.026a2.128,2.128,0,0,0,1.862-.692,3.427,3.427,0,0,0,.479-1.968v-6.279a3.7,3.7,0,0,0-.479-2.022A2.056,2.056,0,0,0,799.317,4709.51Z" fill="#2d2e83"></path>
            <path id="Path_201" d="M888.481,4644.39a9.119,9.119,0,0,0,3.725-.852,5.277,5.277,0,0,0,2.766-3.405,4.969,4.969,0,0,0,2.767,2.607,9.816,9.816,0,0,0,2.766.479q3.512,0,4.9-1.809t1.383-5.533V4624.6c0-.78-.356-1.17-1.064-1.17h-3.4q-.957,0-.958,1.17v10.215q0,2.448-2.128,2.447a2.607,2.607,0,0,1-1.489-.426,2.052,2.052,0,0,1-.639-1.809v-9.045q0-1.168-.957-1.169h-3.406q-.957,0-.957,1.169v10a2.445,2.445,0,0,1-.639,1.81,2.166,2.166,0,0,1-1.6.638q-2.019,0-2.022-2.341v-8.726c0-.78-.282-1.171-.851-1.171h-3.511c-.708,0-1.064.391-1.064,1.171v9.79a7.937,7.937,0,0,0,1.649,5.267A5.831,5.831,0,0,0,888.481,4644.39Z" fill="#2d2e83"></path>
            <path id="Path_202" d="M889.174,4654.6a5.475,5.475,0,0,0-1.756,4.255,5.309,5.309,0,0,0,1.756,4.2,6.3,6.3,0,0,0,4.31,1.542,6.448,6.448,0,0,0,4.416-1.542,5.308,5.308,0,0,0,1.755-4.2,5.474,5.474,0,0,0-1.755-4.255,6.315,6.315,0,0,0-4.416-1.6A6.169,6.169,0,0,0,889.174,4654.6Z" fill="#2d2e83"></path>
            <path id="Path_203" d="M1023.084,4690.781a24.562,24.562,0,0,0-4.522-8.352,19.464,19.464,0,0,0-7.236-5.321,24.345,24.345,0,0,0-9.736-1.862A28.121,28.121,0,0,0,986,4679.981a51.266,51.266,0,0,0-13.141,12.61v-12.769a2.268,2.268,0,0,0-.692-1.968,3.43,3.43,0,0,0-1.968-.479h-6.6q-2.769,0-2.767,2.447v29.688H911.68a24.606,24.606,0,0,1-6.7-.745,11.224,11.224,0,0,1-4.363-2.341v-26.389q0-2.659-2.766-2.66h-6.385q-2.767,0-2.767,2.66v24.048q0,3.3-1.01,4.362t-4.1,1.065H829.643q-3.089,0-4.1-1.065t-1.011-4.362v-56.608q0-2.556-2.234-2.235l-7.662,1.064a2.982,2.982,0,0,0-1.542.691,2.67,2.67,0,0,0-.479,1.862v59.057q0,6.6,3.777,9.948t12.077,3.353h56.286q10.32,0,13.833-5.32a13.2,13.2,0,0,0,5.214,3.936,19.27,19.27,0,0,0,7.239,1.359c.069.007.14.025.208.025h90.125a47.519,47.519,0,0,0,10.853-1.065,17.563,17.563,0,0,0,7.236-3.351,12.78,12.78,0,0,0,3.991-6.012,29.248,29.248,0,0,0,1.223-9.045A35.258,35.258,0,0,0,1023.084,4690.781Zm-12.556,16.813q-1.916,1.915-7.023,1.916H972.753a79.283,79.283,0,0,1,5.959-8.459,61.521,61.521,0,0,1,6.864-7.289,34.648,34.648,0,0,1,7.448-5.161,17.153,17.153,0,0,1,7.821-1.969,10.332,10.332,0,0,1,8.513,3.831q3.086,3.831,3.085,10.534Q1012.443,4705.68,1010.528,4707.594Z" fill="#2d2e83"></path>
          </g>
          <path id="Path_204" d="M1191.579,4676.855a33.2,33.2,0,0,1,12.146-12.147,33.578,33.578,0,0,1,16.63-4.483,33.311,33.311,0,0,1,32.118,24.663l23.828,88.923a33.72,33.72,0,0,1,.828,4.275,33.239,33.239,0,0,1-65.064,12.921l-3.06-11.421L1197.8,4799h0l-.131.22a33.2,33.2,0,0,1-12.013,11.967l-.012-.019-.028.019a32.926,32.926,0,0,1-32.54.36c-.233-.11-.459-.23-.685-.36a33.227,33.227,0,0,1-11.75-11.521c-5.075-8.792,1.405-7.8,5.088-5.016,14.554,11.022,29.79,2.957,34.737-5.612l22.929-39.719a10.029,10.029,0,0,1,18.735,1.739l9.316,34.772a13.189,13.189,0,0,0,25.924-3.422,10.646,10.646,0,0,0-.44-3.423l-23.826-88.92a13.123,13.123,0,0,0-12.744-9.759,13.269,13.269,0,0,0-6.211,1.509,13.551,13.551,0,0,0-5.229,5.081l-34.145,59.143c-28.43,49.24-35.225-6.749-48.8,44.968a33.223,33.223,0,0,1-65.064-12.921,33.72,33.72,0,0,1,.828-4.275l23.828-88.923a33.158,33.158,0,0,1,48.065-20.54c5.047,2.431,10.054,7.7,12.829,12.507l15.01,26c-4.486,7.772-10.131,22.485-16.731,11.085-3.816-6.609-14.887-28.673-20.467-31.9a12.877,12.877,0,0,0-6.588-1.738,13.123,13.123,0,0,0-12.745,9.759l-23.825,88.92a13.966,13.966,0,0,0-.359,1.689,14.265,14.265,0,0,0-.081,1.734,13.185,13.185,0,0,0,25.923,3.422l6.967-26c8.377-31.259,28.413,2.952,44.478-24.876Z" fill="url(#linear-gradient)"></path>
        </g>
      </g>
    </g>
  </symbol>
  <symbol xmlns="http://www.w3.org/2000/svg" viewBox="0 0 82.974 72.996" id="marketing">
    <g id="marketing" transform="translate(-464.56 -5996.502)">
      <path id="Path_17" d="M484.03,6069.5a4.381,4.381,0,0,1-3.94-2.488H467.8a1.645,1.645,0,0,1,0-3.291H479.87a4.369,4.369,0,0,1,8.321,0h56.1a1.645,1.645,0,0,1,0,3.291H487.97A4.381,4.381,0,0,1,484.03,6069.5Z" fill="#36a9e1"></path>
      <path id="Path_18" d="M541.426,5996.5H470.667a6.139,6.139,0,0,0-6.107,6.156v47.374a6.139,6.139,0,0,0,6.107,6.157h70.759a6.14,6.14,0,0,0,6.108-6.157v-47.374A6.14,6.14,0,0,0,541.426,5996.5Zm2.817,53.53a2.845,2.845,0,0,1-2.817,2.866H470.667a2.845,2.845,0,0,1-2.817-2.866v-47.374a2.845,2.845,0,0,1,2.817-2.865h70.759a2.845,2.845,0,0,1,2.817,2.865Z" fill="#36a9e1"></path>
      <path id="Path_19" d="M523.449,6016.321a20.1,20.1,0,0,0-36.811,4.842,20.092,20.092,0,1,0,36.811-4.842Zm-1.171,14.381a16.8,16.8,0,1,1-1.679-12.734A16.677,16.677,0,0,1,522.278,6030.7Z" fill="#fff"></path>
      <path id="Path_20" d="M517.429,6025.506l-16.593-9.569a1.645,1.645,0,0,0-2.467,1.425V6036.5a1.645,1.645,0,0,0,2.467,1.425l16.594-9.569a1.646,1.646,0,0,0,0-2.851Zm-15.769,8.146v-13.441l11.654,6.72Z" fill="#fff"></path>
    </g>
  </symbol>
  <symbol xmlns="http://www.w3.org/2000/svg" viewBox="0 0 58.26 61.216" id="message">
    <path id="message" d="M976.872,6894.217H933.128a7.267,7.267,0,0,0-7.258,7.259v31.57a7.267,7.267,0,0,0,7.258,7.258h4.642a1.58,1.58,0,0,1,1.578,1.578v13.551l16.141-14.717a1.571,1.571,0,0,1,1.062-.412h20.321a7.267,7.267,0,0,0,7.258-7.258v-31.57A7.267,7.267,0,0,0,976.872,6894.217Zm0,2.609a4.609,4.609,0,0,1,2,.472l-22.451,19.587a.724.724,0,0,1-.922.023l-24.7-19.438a4.6,4.6,0,0,1,2.32-.644Zm4.65,36.22a4.655,4.655,0,0,1-4.65,4.65H956.551a4.175,4.175,0,0,0-2.82,1.093l-11.774,10.735v-7.642a4.191,4.191,0,0,0-4.187-4.186h-4.642a4.655,4.655,0,0,1-4.65-4.65v-31.57a4.593,4.593,0,0,1,.527-2.1l24.884,19.586a3.335,3.335,0,0,0,4.251-.107l22.685-19.791a4.6,4.6,0,0,1,.7,2.416Z" transform="translate(-925.87 -6894.217)" fill="#fff"></path>
  </symbol>
  <symbol xmlns="http://www.w3.org/2000/svg" viewBox="0 0 80.585 80" id="sms">
    <g id="sms" transform="translate(-465.754 -6327)">
      <g id="Group_4">
        <path id="Path_14" d="M483.7,6407a1.6,1.6,0,0,1-1.6-1.6v-13.418h-6.574a9.784,9.784,0,0,1-9.773-9.773v-33.633a9.784,9.784,0,0,1,9.773-9.772h26.967a1.6,1.6,0,1,1,0,3.2H475.527a6.587,6.587,0,0,0-6.127,4.185l26.724,20.556c2.992,2.3,4.11,2.6,7.4,0l5.438-4.3a1.6,1.6,0,0,1,1.982,2.508l-5.438,4.3c-4.738,3.743-7.533,2.945-11.331.023l-25.225-19.4v32.337a6.585,6.585,0,0,0,6.577,6.577H483.7a1.6,1.6,0,0,1,1.6,1.6v11.271l12.962-12.425a1.6,1.6,0,0,1,1.106-.444h24.191a6.585,6.585,0,0,0,6.577-6.577V6370.24a1.6,1.6,0,1,1,3.2,0v11.971a9.784,9.784,0,0,1-9.773,9.773H500.007l-15.2,14.572A1.6,1.6,0,0,1,483.7,6407Z" fill="#36a9e1"></path>
        <path id="Path_15" d="M526.778,6327a19.562,19.562,0,1,0,19.561,19.561A19.583,19.583,0,0,0,526.778,6327Zm0,35.927a16.365,16.365,0,1,1,16.365-16.366A16.384,16.384,0,0,1,526.778,6362.927Z" fill="#fff"></path>
        <path id="Path_16" d="M526.6,6356.579a10.314,10.314,0,0,1-6.41-2.172,1.6,1.6,0,0,1,1.794-2.645,7.282,7.282,0,0,0,4.617,1.621h.018c3.754-.007,4.258-1.838,4.256-3.629a2.669,2.669,0,0,0-.832-2.233c-1.76-1.536-6.181-.935-8.069-.679a1.6,1.6,0,0,1-1.813-1.584v-7.117a1.6,1.6,0,0,1,1.6-1.6h10.482a1.6,1.6,0,1,1,0,3.2h-8.884v3.722c3.3-.321,6.664-.2,8.787,1.651a5.865,5.865,0,0,1,1.927,4.638c.005,4.331-2.709,6.82-7.445,6.829Z" fill="#fff"></path>
      </g>
    </g>
  </symbol>
  <symbol xmlns="http://www.w3.org/2000/svg" viewBox="0 0 55.173 55.173" id="twitter">
    <path id="twitter" d="M1492.38,7104.624h0a27.587,27.587,0,0,0-27.586,27.587h0a27.587,27.587,0,0,0,27.586,27.586h0a27.587,27.587,0,0,0,27.587-27.586h0A27.587,27.587,0,0,0,1492.38,7104.624Zm14.173,19.532a2.555,2.555,0,0,0-1.041,2.142c-.45,14.409-16.821,25.558-28.019,16.685-1.085-.86-.028,0-1.066-.84a13.815,13.815,0,0,0,9.369-2.743c-2.959-.506-5.015-1.854-6.134-4.662a9.76,9.76,0,0,0,2.517-.246c-2.914-1.277-4.8-3.2-4.878-6.514.918.081,1.617.678,2.719.6-2.684-2.622-3.5-5.47-1.812-8.943a19.56,19.56,0,0,0,10.065,6.421c.217.056.434.116.651.166a13.342,13.342,0,0,0,2.874.669c1.077-.135,0-1.371.274-2.976a6.572,6.572,0,0,1,10.425-4.34,2.934,2.934,0,0,0,3.3.324c.614-.273,1.234-.533,1.961-.846-.167,1.434-1.259,2.211-2.136,3.278a4.866,4.866,0,0,0,2.716-.35A4.549,4.549,0,0,1,1506.553,7124.156Z" transform="translate(-1464.794 -7104.624)" fill="#36a9e1"></path>
  </symbol>
  <symbol xmlns="http://www.w3.org/2000/svg" viewBox="0 0 113.27 81.194" id="watermark">
    <path id="watermark" d="M913.419,5173.7a17.345,17.345,0,0,1,6.345-6.345,17.543,17.543,0,0,1,8.686-2.341,17.4,17.4,0,0,1,16.777,12.882l12.446,46.448a19.218,19.218,0,0,1,.6,4.49,17.372,17.372,0,0,1-34.15,4.492l-1.6-5.966-5.854,10.141h0l-.068.115a17.34,17.34,0,0,1-6.275,6.25l-.006-.01-.015.01a17.2,17.2,0,0,1-17,.188c-.121-.057-.24-.12-.358-.188a17.35,17.35,0,0,1-6.137-6.017c-2.651-4.593.734-4.076,2.658-2.62a12.246,12.246,0,0,0,18.144-2.932l11.977-20.746a5.238,5.238,0,0,1,9.786.908l4.866,18.162a6.889,6.889,0,0,0,13.541-1.787,5.617,5.617,0,0,0-.23-1.788L935.107,5180.6a6.936,6.936,0,0,0-9.9-4.309,7.067,7.067,0,0,0-2.731,2.654l-17.836,30.892c-14.849,25.72-18.4-3.525-25.488,23.489a17.367,17.367,0,0,1-33.553-8.982l12.446-46.448a17.374,17.374,0,0,1,31.807-4.2l7.84,13.582c-2.343,4.059-5.291,11.745-8.739,5.79-1.993-3.452-7.776-14.977-10.691-16.661a6.721,6.721,0,0,0-3.441-.909,6.857,6.857,0,0,0-6.657,5.1l-12.444,46.446a7.125,7.125,0,0,0-.188.883,7.379,7.379,0,0,0-.042.9,6.886,6.886,0,0,0,13.54,1.787l3.639-13.582c4.376-16.328,14.842,1.541,23.233-12.994Z" transform="translate(-845 -5165.017)" fill="#fff" opacity="0.25"></path>
  </symbol>
  <symbol xmlns="http://www.w3.org/2000/svg" viewBox="0 0 210.438 87.34" id="white_logo">
    <g id="white-logo" transform="translate(-340.562 -4317.264)">
      <g id="Group_40">
        <path id="Path_223" d="M362.485,4361.967a2.1,2.1,0,0,0,1.439-.516,1.772,1.772,0,0,0,.586-1.4,1.831,1.831,0,0,0-.586-1.422,2.059,2.059,0,0,0-1.439-.533,2.107,2.107,0,0,0-1.475.533,1.828,1.828,0,0,0-.586,1.422,1.769,1.769,0,0,0,.586,1.4A2.153,2.153,0,0,0,362.485,4361.967Z" fill="#fff"></path>
        <path id="Path_224" d="M357.262,4361.967a2.1,2.1,0,0,0,1.439-.516,1.772,1.772,0,0,0,.586-1.4,1.831,1.831,0,0,0-.586-1.422,2.059,2.059,0,0,0-1.439-.533,2.106,2.106,0,0,0-1.475.533,1.828,1.828,0,0,0-.586,1.422,1.769,1.769,0,0,0,.586,1.4A2.151,2.151,0,0,0,357.262,4361.967Z" fill="#fff"></path>
        <path id="Path_225" d="M377.336,4365.911H375.2q-.925,0-.924.888v8.03a2.21,2.21,0,0,1-.338,1.457,1.916,1.916,0,0,1-1.368.356h-6.182v-3.837a8.6,8.6,0,0,0-.5-3.075,5.707,5.707,0,0,0-1.4-2.149,5.643,5.643,0,0,0-2.185-1.262,9.2,9.2,0,0,0-2.807-.408,6.818,6.818,0,0,0-5.2,1.972,7.311,7.311,0,0,0-1.866,5.24q0,3.839,1.9,5.633a7.491,7.491,0,0,0,5.348,1.794H362.2a4.891,4.891,0,0,1-2.861,2.949,14.689,14.689,0,0,1-6.022,1.03q-8.706,0-8.706-5.471a9.214,9.214,0,0,1,.32-2.275,12.4,12.4,0,0,1,.924-2.451,1.133,1.133,0,0,0,.178-.835,1.045,1.045,0,0,0-.6-.479l-1.706-.783a1.015,1.015,0,0,0-.888-.071,1.831,1.831,0,0,0-.568.746,17.453,17.453,0,0,0-1.262,3.287,12.088,12.088,0,0,0-.444,3.145,7.634,7.634,0,0,0,3.34,6.751q3.339,2.273,9.38,2.274a18.391,18.391,0,0,0,9.1-1.937,7.488,7.488,0,0,0,3.909-5.88h6.679a5.993,5.993,0,0,0,4.033-1.119,4.214,4.214,0,0,0,1.261-3.323V4366.8Q378.26,4365.911,377.336,4365.911Zm-14.922,10.731h-2.1a4.787,4.787,0,0,1-2.931-.711q-.906-.711-.906-2.843a3.719,3.719,0,0,1,.764-2.451,2.889,2.889,0,0,1,2.362-.924,2.574,2.574,0,0,1,2.15.835,3.492,3.492,0,0,1,.658,2.221Z" fill="#fff"></path>
        <path id="Path_226" d="M369.946,4384.813a2.108,2.108,0,0,0-1.475.534,1.827,1.827,0,0,0-.586,1.421,1.778,1.778,0,0,0,.586,1.4,2.16,2.16,0,0,0,1.475.515,2.109,2.109,0,0,0,1.439-.515,1.775,1.775,0,0,0,.586-1.4,1.824,1.824,0,0,0-.586-1.421A2.06,2.06,0,0,0,369.946,4384.813Z" fill="#fff"></path>
        <path id="Path_227" d="M375.169,4384.813a2.108,2.108,0,0,0-1.475.534,1.827,1.827,0,0,0-.586,1.421,1.778,1.778,0,0,0,.586,1.4,2.16,2.16,0,0,0,1.475.515,2.109,2.109,0,0,0,1.439-.515,1.775,1.775,0,0,0,.586-1.4,1.824,1.824,0,0,0-.586-1.421A2.06,2.06,0,0,0,375.169,4384.813Z" fill="#fff"></path>
        <path id="Path_228" d="M440.261,4361.646a2.1,2.1,0,0,0,1.439-.514,1.772,1.772,0,0,0,.587-1.4,1.829,1.829,0,0,0-.587-1.422,2.06,2.06,0,0,0-1.439-.533,2.11,2.11,0,0,0-1.474.533,1.828,1.828,0,0,0-.586,1.422,1.771,1.771,0,0,0,.586,1.4A2.147,2.147,0,0,0,440.261,4361.646Z" fill="#fff"></path>
        <path id="Path_229" d="M435.038,4361.646a2.1,2.1,0,0,0,1.439-.514,1.771,1.771,0,0,0,.586-1.4,1.828,1.828,0,0,0-.586-1.422,2.064,2.064,0,0,0-1.439-.533,2.114,2.114,0,0,0-1.475.533,1.831,1.831,0,0,0-.585,1.422,1.774,1.774,0,0,0,.585,1.4A2.152,2.152,0,0,0,435.038,4361.646Z" fill="#fff"></path>
        <path id="Path_230" d="M463.924,4355.181l-2.558.354a1,1,0,0,0-.515.232.889.889,0,0,0-.16.622v18.44a2.21,2.21,0,0,1-.338,1.457,1.916,1.916,0,0,1-1.368.356H456a8.207,8.207,0,0,1-2.238-.249,3.744,3.744,0,0,1-1.457-.782v-19.684q0-.855-.746-.746l-2.559.354a1.009,1.009,0,0,0-.515.232.9.9,0,0,0-.16.622v18.44a2.212,2.212,0,0,1-.337,1.457,1.916,1.916,0,0,1-1.368.356h-3.34a8.207,8.207,0,0,1-2.238-.249,3.759,3.759,0,0,1-1.457-.782V4366.8q0-.888-.923-.888H436.53q-.924,0-.924.888v8.03a2.212,2.212,0,0,1-.337,1.457,1.916,1.916,0,0,1-1.368.356h-3.339a8.865,8.865,0,0,1-2.221-.232,3.36,3.36,0,0,1-1.475-.8,1.874,1.874,0,0,0,.036-.373v-8.474a.815.815,0,0,0-.231-.676,1.07,1.07,0,0,0-.657-.177H423.7a.927.927,0,0,0-.6.177.856.856,0,0,0-.213.676v7.568a3.042,3.042,0,0,1-.462,1.723,1.9,1.9,0,0,1-1.706.693,3.867,3.867,0,0,1-1.4-.267,4.448,4.448,0,0,1-1.368-.87v-5.65a.849.849,0,0,0-.213-.674.978.978,0,0,0-.64-.178h-2.238a1.055,1.055,0,0,0-.658.178.809.809,0,0,0-.231.674v4.371a3.035,3.035,0,0,1-.462,1.723,1.9,1.9,0,0,1-1.705.693,4.392,4.392,0,0,1-2.807-1.1v-5.685a.849.849,0,0,0-.213-.674.977.977,0,0,0-.64-.178h-2.309a.99.99,0,0,0-.622.178.809.809,0,0,0-.231.674v4.655a1.775,1.775,0,0,1-1.99,2.026h-6.608v-3.837a8.576,8.576,0,0,0-.5-3.075,5.481,5.481,0,0,0-3.588-3.411,9.2,9.2,0,0,0-2.807-.408,6.82,6.82,0,0,0-5.206,1.972,7.315,7.315,0,0,0-1.865,5.24q0,3.839,1.9,5.633a7.491,7.491,0,0,0,5.348,1.794h1.954a6.576,6.576,0,0,1-1.83,2.327,20.4,20.4,0,0,1-3.358,2.15,1.772,1.772,0,0,0-.657.551.636.636,0,0,0,.053.656l.995,1.813a.781.781,0,0,0,1.173.391,33.338,33.338,0,0,0,3.3-1.866,15.049,15.049,0,0,0,2.327-1.83,8.5,8.5,0,0,0,1.51-1.954,8.771,8.771,0,0,0,.853-2.238h7.461a7.348,7.348,0,0,0,2.949-.515,4.188,4.188,0,0,0,1.812-1.439,4.92,4.92,0,0,0,2.043,1.474,6.53,6.53,0,0,0,2.4.48,5.56,5.56,0,0,0,2.611-.569,4.57,4.57,0,0,0,1.724-1.528,5.613,5.613,0,0,0,2.06,1.582,6.288,6.288,0,0,0,2.559.515,5.671,5.671,0,0,0,2.629-.569,4.534,4.534,0,0,0,1.741-1.528c.852,1.36,2.325,2.052,4.41,2.09.01,0,.021.007.031.007h3.873q3.445,0,4.619-1.777a4.41,4.41,0,0,0,1.741,1.315,6.456,6.456,0,0,0,2.458.455c.01,0,.019.007.029.007h3.873q3.445,0,4.619-1.777a4.41,4.41,0,0,0,1.741,1.315,6.456,6.456,0,0,0,2.458.455c.009,0,.019.007.028.007h3.518a5.991,5.991,0,0,0,4.033-1.119,4.211,4.211,0,0,0,1.261-3.323v-20.181Q464.67,4355.072,463.924,4355.181ZM392.4,4376.642h-2.1a4.787,4.787,0,0,1-2.931-.711q-.906-.711-.906-2.843a3.724,3.724,0,0,1,.763-2.451,2.891,2.891,0,0,1,2.363-.924,2.575,2.575,0,0,1,2.15.835,3.492,3.492,0,0,1,.657,2.221Z" fill="#fff"></path>
      </g>
      <g id="Group_44">
        <g id="Group_42">
          <g id="Group_41">
            <path id="Path_231" d="M368.66,4393.619a.342.342,0,0,1,.386-.369H370a.577.577,0,0,1,.355.088.7.7,0,0,1,.193.266l3.721,7.957h.032l3.4-7.957a.668.668,0,0,1,.185-.274.54.54,0,0,1,.33-.08h.951a.328.328,0,0,1,.37.354l.484,10.356a.485.485,0,0,1-.065.322.356.356,0,0,1-.306.113h-1.305c-.172,0-.281-.038-.33-.113a.933.933,0,0,1-.088-.419l-.226-6.539h-.032l-2.738,6.781a.549.549,0,0,1-.169.234.5.5,0,0,1-.266.056h-.564a.684.684,0,0,1-.306-.056.462.462,0,0,1-.193-.25l-3.044-6.765h-.032l-.145,6.668c0,.184-.035.295-.1.338a.65.65,0,0,1-.33.065h-1.1q-.435,0-.419-.418Z" fill="#fff"></path>
            <path id="Path_232" d="M385.232,4393.571a.685.685,0,0,1,.162-.233.388.388,0,0,1,.273-.088h1.289a.438.438,0,0,1,.451.289l3.962,10.438a.355.355,0,0,1,0,.3.248.248,0,0,1-.242.121h-1.465a.537.537,0,0,1-.363-.1.825.825,0,0,1-.185-.291l-.837-2.367H384.2l-.838,2.416a.538.538,0,0,1-.145.25.42.42,0,0,1-.29.088h-1.385a.254.254,0,0,1-.25-.113.367.367,0,0,1,.009-.29Zm2.5,6.507-1.144-3.4-.321-1.047h-.033l-.338,1.063-1.143,3.382Z" fill="#fff"></path>
            <path id="Path_233" d="M400.534,4403.912a.514.514,0,0,1,.1.354c-.021.086-.107.129-.257.129h-1.434a.746.746,0,0,1-.378-.073.738.738,0,0,1-.234-.25l-2.319-3.784h-1.24v3.7c0,.269-.124.4-.371.4h-1.32c-.258,0-.387-.134-.387-.4v-10.275a.6.6,0,0,1,.081-.371c.053-.065.171-.1.354-.1h2.384q.531,0,1.054.048a6.271,6.271,0,0,1,1.015.177,4.019,4.019,0,0,1,.918.363,2.692,2.692,0,0,1,.749.6,3.072,3.072,0,0,1,.58,1.023,3.825,3.825,0,0,1,.194,1.232,3.444,3.444,0,0,1-.556,1.949,3.4,3.4,0,0,1-1.523,1.256Zm-2.626-7.183a1.637,1.637,0,0,0-.644-1.475,3.029,3.029,0,0,0-1.691-.426h-.8v3.9h1a2.3,2.3,0,0,0,1.554-.507A1.864,1.864,0,0,0,397.908,4396.729Z" fill="#fff"></path>
            <path id="Path_234" d="M408.587,4404.4a.885.885,0,0,1-.451-.1,1.219,1.219,0,0,1-.322-.307l-3.479-4.461H404.3v4.461c0,.269-.129.4-.386.4h-1.289a.356.356,0,0,1-.4-.4v-10.356q0-.386.4-.386h1.289a.44.44,0,0,1,.289.08.384.384,0,0,1,.1.306v4.557h.032l3.318-4.654a.853.853,0,0,1,.25-.225.748.748,0,0,1,.346-.064h1.24a.313.313,0,0,1,.234.064.216.216,0,0,1,.056.145.556.556,0,0,1-.129.306l-3.624,4.864,4.2,5.17a.912.912,0,0,1,.161.225.426.426,0,0,1,.032.162.2.2,0,0,1-.064.144.344.344,0,0,1-.242.065Z" fill="#fff"></path>
            <path id="Path_235" d="M418.025,4399.145a.384.384,0,0,1-.08.265.409.409,0,0,1-.306.088H413.9v3.222h4.316c.269,0,.4.124.4.37v.918a.342.342,0,0,1-.387.387h-5.975a.533.533,0,0,1-.338-.081c-.065-.053-.1-.171-.1-.354v-10.308q0-.4.371-.4h6.072c.161,0,.263.031.306.1a.369.369,0,0,1,.032.273l-.113.967a.329.329,0,0,1-.161.282,1.013,1.013,0,0,1-.386.056H413.9v2.916h3.737a.409.409,0,0,1,.306.088.386.386,0,0,1,.08.265Z" fill="#fff"></path>
            <path id="Path_236" d="M422.9,4394.924h-3.012q-.371,0-.37-.386v-.95c0-.226.118-.338.354-.338h8.166a.673.673,0,0,1,.411.088.33.33,0,0,1,.072.314l-.112.934a.371.371,0,0,1-.145.266.681.681,0,0,1-.354.072H425v9.068c0,.269-.129.4-.387.4h-1.3a.356.356,0,0,1-.4-.4Z" fill="#fff"></path>
            <path id="Path_237" d="M434.083,4394.264a.344.344,0,0,1-.081.265.371.371,0,0,1-.257.073h-.918v8.44h.886a.313.313,0,0,1,.257.1.361.361,0,0,1,.081.242v.691q0,.323-.29.323H429.9q-.322,0-.323-.306v-.725a.285.285,0,0,1,.323-.322h.869v-8.44h-.934a.284.284,0,0,1-.322-.322v-.709a.36.36,0,0,1,.073-.225.25.25,0,0,1,.217-.1h3.946a.33.33,0,0,1,.257.088.31.31,0,0,1,.081.217Z" fill="#fff"></path>
            <path id="Path_238" d="M445.18,4393.25a.37.37,0,0,1,.419.418v10.292q0,.275-.105.354a.447.447,0,0,1-.282.081h-1.03a.771.771,0,0,1-.661-.338l-5.25-7.184h-.033v7.1a.369.369,0,0,1-.418.418h-1.16a.536.536,0,0,1-.33-.081.39.39,0,0,1-.1-.322v-10.308a.443.443,0,0,1,.1-.346.5.5,0,0,1,.33-.088h1.047a.619.619,0,0,1,.306.064.861.861,0,0,1,.241.241l5.3,7.281h.032v-7.168a.369.369,0,0,1,.418-.418Z" fill="#fff"></path>
            <path id="Path_239" d="M456.7,4403.235a.668.668,0,0,1-.08.363.917.917,0,0,1-.306.25,5.008,5.008,0,0,1-.765.314,8.591,8.591,0,0,1-.91.233c-.323.064-.65.113-.983.145s-.65.048-.95.048a5.606,5.606,0,0,1-2.231-.418A4.689,4.689,0,0,1,448.82,4403a4.964,4.964,0,0,1-1.022-1.805,7.445,7.445,0,0,1-.347-2.343,6.69,6.69,0,0,1,.4-2.327,5.518,5.518,0,0,1,1.1-1.844,4.98,4.98,0,0,1,1.716-1.208,5.617,5.617,0,0,1,2.247-.435,7.5,7.5,0,0,1,1.5.146,6.817,6.817,0,0,1,1.45.466c.15.065.228.137.233.217a.553.553,0,0,1-.056.266l-.387,1q-.112.273-.45.129a6.046,6.046,0,0,0-1.015-.323,5.152,5.152,0,0,0-1.176-.145,3.409,3.409,0,0,0-1.256.234,2.728,2.728,0,0,0-1.015.685,3.541,3.541,0,0,0-.789,1.3,5.285,5.285,0,0,0-.274,1.772,4.822,4.822,0,0,0,.822,2.972,2.7,2.7,0,0,0,2.287,1.087,6.943,6.943,0,0,0,1-.073,3.6,3.6,0,0,0,.822-.2V4399.5h-1.434a.408.408,0,0,1-.266-.072.351.351,0,0,1-.088-.281v-.983a.29.29,0,0,1,.1-.258.488.488,0,0,1,.273-.064h3.125a.47.47,0,0,1,.3.072.382.382,0,0,1,.088.3Z" fill="#fff"></path>
            <path id="Path_240" d="M463.155,4393.619a.342.342,0,0,1,.386-.369h.95a.575.575,0,0,1,.355.088.7.7,0,0,1,.193.266l3.721,7.957h.032l3.4-7.957a.668.668,0,0,1,.185-.274.542.542,0,0,1,.331-.08h.95a.328.328,0,0,1,.37.354l.484,10.356a.485.485,0,0,1-.065.322.353.353,0,0,1-.306.113h-1.3c-.171,0-.281-.038-.33-.113a.933.933,0,0,1-.088-.419l-.226-6.539h-.032l-2.738,6.781a.541.541,0,0,1-.169.234.5.5,0,0,1-.266.056h-.564a.684.684,0,0,1-.306-.056.466.466,0,0,1-.193-.25l-3.044-6.765h-.032l-.145,6.668c0,.184-.035.295-.1.338a.65.65,0,0,1-.33.065h-1.1q-.435,0-.419-.418Z" fill="#fff"></path>
            <path id="Path_241" d="M479.728,4393.571a.7.7,0,0,1,.161-.233.392.392,0,0,1,.274-.088h1.289a.439.439,0,0,1,.451.289l3.962,10.438a.355.355,0,0,1,0,.3.249.249,0,0,1-.242.121h-1.465a.537.537,0,0,1-.363-.1.826.826,0,0,1-.185-.291l-.838-2.367H478.7l-.837,2.416a.546.546,0,0,1-.145.25.422.422,0,0,1-.29.088H476.04a.253.253,0,0,1-.25-.113.362.362,0,0,1,.008-.29Zm2.5,6.507-1.144-3.4-.322-1.047h-.032l-.338,1.063-1.144,3.382Z" fill="#fff"></path>
            <path id="Path_242" d="M493.547,4404.4a.884.884,0,0,1-.451-.1,1.22,1.22,0,0,1-.322-.307l-3.479-4.461h-.032v4.461c0,.269-.129.4-.387.4h-1.288a.356.356,0,0,1-.4-.4v-10.356q0-.386.4-.386h1.288a.441.441,0,0,1,.29.08.388.388,0,0,1,.1.306v4.557h.032l3.318-4.654a.853.853,0,0,1,.25-.225.749.749,0,0,1,.346-.064h1.24a.313.313,0,0,1,.234.064.216.216,0,0,1,.056.145.556.556,0,0,1-.129.306l-3.624,4.864,4.2,5.17a.913.913,0,0,1,.161.225.426.426,0,0,1,.032.162.2.2,0,0,1-.064.144.344.344,0,0,1-.242.065Z" fill="#fff"></path>
            <path id="Path_243" d="M502.986,4399.145a.384.384,0,0,1-.081.265.408.408,0,0,1-.306.088h-3.737v3.222h4.317c.268,0,.4.124.4.37v.918a.342.342,0,0,1-.387.387H497.22a.538.538,0,0,1-.339-.081.464.464,0,0,1-.1-.354v-10.308q0-.4.37-.4h6.072c.161,0,.263.031.306.1a.364.364,0,0,1,.032.273l-.112.967a.334.334,0,0,1-.161.282,1.016,1.016,0,0,1-.387.056h-4.043v2.916H502.6a.408.408,0,0,1,.306.088.386.386,0,0,1,.081.265Z" fill="#fff"></path>
            <path id="Path_244" d="M513.293,4403.912a.516.516,0,0,1,.1.354q-.031.129-.258.129H511.7a.588.588,0,0,1-.612-.323l-2.319-3.784h-1.241v3.7c0,.269-.123.4-.37.4h-1.321c-.257,0-.386-.134-.386-.4v-10.275a.612.612,0,0,1,.08-.371c.054-.065.172-.1.355-.1h2.384q.531,0,1.054.048a6.271,6.271,0,0,1,1.015.177,4.02,4.02,0,0,1,.918.363,2.693,2.693,0,0,1,.749.6,3.072,3.072,0,0,1,.58,1.023,3.826,3.826,0,0,1,.193,1.232,3.444,3.444,0,0,1-.555,1.949,3.405,3.405,0,0,1-1.523,1.256Zm-2.625-7.183a1.637,1.637,0,0,0-.644-1.475,3.029,3.029,0,0,0-1.691-.426h-.806v3.9h1a2.3,2.3,0,0,0,1.554-.507A1.864,1.864,0,0,0,510.668,4396.729Z" fill="#fff"></path>
            <path id="Path_245" d="M521.862,4401.142a3.331,3.331,0,0,1-.314,1.481,3.133,3.133,0,0,1-.853,1.08,3.814,3.814,0,0,1-1.249.66,4.874,4.874,0,0,1-1.5.225,9.844,9.844,0,0,1-1.538-.129,8.552,8.552,0,0,1-1.538-.387c-.15-.052-.239-.123-.266-.209a.478.478,0,0,1,.024-.3l.339-1.047c.043-.14.107-.224.193-.25a.531.531,0,0,1,.338.04,8.753,8.753,0,0,0,1.176.346,5.619,5.619,0,0,0,1.224.137,2.692,2.692,0,0,0,.652-.081,1.847,1.847,0,0,0,.6-.257,1.471,1.471,0,0,0,.435-.442,1.193,1.193,0,0,0,.169-.652,1.166,1.166,0,0,0-.354-.9,3.287,3.287,0,0,0-.821-.556l-2.094-1.047a3.622,3.622,0,0,1-1.385-1.12,2.7,2.7,0,0,1-.516-1.65,2.527,2.527,0,0,1,.331-1.305,3.1,3.1,0,0,1,.861-.95,3.949,3.949,0,0,1,1.192-.588,4.558,4.558,0,0,1,1.337-.2,8.055,8.055,0,0,1,1.489.129,6.594,6.594,0,0,1,1.394.435.592.592,0,0,1,.29.209.379.379,0,0,1-.017.322l-.386.982c-.054.141-.123.218-.209.235a.588.588,0,0,1-.322-.057,6.455,6.455,0,0,0-1.08-.362,4.452,4.452,0,0,0-1.046-.138,2.72,2.72,0,0,0-.58.064,1.7,1.7,0,0,0-.524.21,1.17,1.17,0,0,0-.378.378,1.068,1.068,0,0,0-.145.573.944.944,0,0,0,.1.443,1.436,1.436,0,0,0,.265.362,1.784,1.784,0,0,0,.371.282c.139.081.274.153.4.217l1.788.869a4.735,4.735,0,0,1,1.554,1.153A2.654,2.654,0,0,1,521.862,4401.142Z" fill="#fff"></path>
            <path id="Path_246" d="M535.6,4403.429a.357.357,0,0,1-.226.5,10.115,10.115,0,0,1-1.562.491,7.6,7.6,0,0,1-1.643.169,5.417,5.417,0,0,1-2.223-.426,4.323,4.323,0,0,1-1.578-1.184,5.053,5.053,0,0,1-.942-1.812,7.994,7.994,0,0,1-.315-2.295,7.085,7.085,0,0,1,.363-2.3,5.566,5.566,0,0,1,1.039-1.852,4.739,4.739,0,0,1,1.643-1.233,5.179,5.179,0,0,1,2.174-.442,6.81,6.81,0,0,1,3.028.677.558.558,0,0,1,.242.185.386.386,0,0,1-.033.3l-.37,1.016c-.065.2-.2.252-.4.144a4.935,4.935,0,0,0-1.168-.451,5.117,5.117,0,0,0-1.167-.129,2.717,2.717,0,0,0-1.426.355,3.032,3.032,0,0,0-.966.918,3.839,3.839,0,0,0-.547,1.288,6.364,6.364,0,0,0-.17,1.45,6.238,6.238,0,0,0,.21,1.683,3.764,3.764,0,0,0,.612,1.281,2.679,2.679,0,0,0,.99.812,3.022,3.022,0,0,0,1.329.283,5.665,5.665,0,0,0,2.32-.515.387.387,0,0,1,.257-.057c.064.016.123.083.177.2Z" fill="#fff"></path>
            <path id="Path_247" d="M544.25,4400.48a4.94,4.94,0,0,1-.258,1.62,3.68,3.68,0,0,1-.765,1.3,3.539,3.539,0,0,1-1.24.87,4.207,4.207,0,0,1-1.667.314,4.274,4.274,0,0,1-1.707-.314,3.169,3.169,0,0,1-1.192-.87,3.688,3.688,0,0,1-.7-1.3,5.459,5.459,0,0,1-.233-1.635,4.94,4.94,0,0,1,.257-1.619,3.545,3.545,0,0,1,2-2.158,4.185,4.185,0,0,1,1.675-.314,4.386,4.386,0,0,1,1.707.306,3.163,3.163,0,0,1,1.192.853,3.664,3.664,0,0,1,.7,1.3A5.583,5.583,0,0,1,544.25,4400.48Zm-2.013,0a5.042,5.042,0,0,0-.089-.957,2.637,2.637,0,0,0-.3-.822,1.639,1.639,0,0,0-.564-.58,1.673,1.673,0,0,0-.886-.217,1.76,1.76,0,0,0-.9.217,1.7,1.7,0,0,0-.588.565,2.433,2.433,0,0,0-.314.8,4.532,4.532,0,0,0-.1.943,5.17,5.17,0,0,0,.088.966,2.71,2.71,0,0,0,.3.837,1.654,1.654,0,0,0,.564.6,1.614,1.614,0,0,0,.886.227,1.711,1.711,0,0,0,.894-.218,1.755,1.755,0,0,0,.588-.58,2.515,2.515,0,0,0,.322-.822A4.6,4.6,0,0,0,542.237,4400.48Z" fill="#fff"></path>
            <path id="Path_248" d="M548.18,4403.493a1.021,1.021,0,0,1-.1.476,1.2,1.2,0,0,1-.266.345,1.055,1.055,0,0,1-.37.217,1.235,1.235,0,0,1-.838,0,1.046,1.046,0,0,1-.37-.217,1.218,1.218,0,0,1-.266-.345,1.021,1.021,0,0,1-.105-.476,1.035,1.035,0,0,1,.105-.468,1.2,1.2,0,0,1,.266-.353,1.055,1.055,0,0,1,.37-.218,1.251,1.251,0,0,1,.838,0,1.065,1.065,0,0,1,.37.218,1.188,1.188,0,0,1,.266.353A1.035,1.035,0,0,1,548.18,4403.493Z" fill="#fff"></path>
          </g>
        </g>
        <g id="Group_43">
          <path id="Path_249" d="M391.346,4346.008h-7.959a7.323,7.323,0,0,1-1.563-2.256,5.552,5.552,0,0,1-.462-2.115,3.231,3.231,0,0,1,.835-2.309,3.482,3.482,0,0,1,2.647-.889,7.928,7.928,0,0,1,3.34.853,1.064,1.064,0,0,0,.693.142.764.764,0,0,0,.408-.461l.853-1.883q.249-.568-.391-.96a9.473,9.473,0,0,0-5.258-1.492,8.8,8.8,0,0,0-2.843.444,6.885,6.885,0,0,0-2.292,1.279,5.83,5.83,0,0,0-1.527,2.043,6.6,6.6,0,0,0-.551,2.772,7.62,7.62,0,0,0,.551,2.771,8.861,8.861,0,0,0,1.687,2.7,6.271,6.271,0,0,0-3.464,2.311,6.831,6.831,0,0,0-1.119,4.015,6.4,6.4,0,0,0,2.4,5.4q2.4,1.846,6.911,1.848a20.52,20.52,0,0,0,3.713-.338,15.568,15.568,0,0,0,3.18-.906,1.449,1.449,0,0,0,.675-.5.967.967,0,0,0,0-.817l-.675-1.741a.939.939,0,0,0-.355-.515,1.074,1.074,0,0,0-.782.053,19.608,19.608,0,0,1-5.614.959,7.709,7.709,0,0,1-3.908-.853,2.774,2.774,0,0,1-1.457-2.557,2.58,2.58,0,0,1,1.172-2.346,7.336,7.336,0,0,1,3.8-.746h7.355a.711.711,0,0,0,.622-.23,1.149,1.149,0,0,0,.16-.659v-2.095a1.234,1.234,0,0,0-.16-.676A.688.688,0,0,0,391.346,4346.008Z" fill="#fff"></path>
          <path id="Path_250" d="M421.12,4324.263a3.059,3.059,0,0,0,1.243-.284,1.762,1.762,0,0,0,.924-1.137,1.657,1.657,0,0,0,.924.87,3.309,3.309,0,0,0,.924.16,1.939,1.939,0,0,0,1.634-.6,3.031,3.031,0,0,0,.462-1.848v-3.766q0-.39-.356-.39h-1.136c-.214,0-.32.13-.32.39v3.41q0,.819-.711.819a.876.876,0,0,1-.5-.143.686.686,0,0,1-.213-.6v-3.022q0-.39-.32-.39h-1.137q-.319,0-.32.39v3.341a.821.821,0,0,1-.213.6.726.726,0,0,1-.533.212c-.45,0-.675-.26-.675-.782v-2.913c0-.261-.094-.39-.284-.39h-1.173c-.237,0-.355.129-.355.39v3.269a2.642,2.642,0,0,0,.551,1.758A1.945,1.945,0,0,0,421.12,4324.263Z" fill="#fff"></path>
          <path id="Path_251" d="M421.351,4327.674a1.826,1.826,0,0,0-.586,1.421,1.769,1.769,0,0,0,.586,1.4,2.1,2.1,0,0,0,1.439.516,2.153,2.153,0,0,0,1.475-.516,1.773,1.773,0,0,0,.586-1.4,1.83,1.83,0,0,0-.586-1.421,2.108,2.108,0,0,0-1.475-.533A2.059,2.059,0,0,0,421.351,4327.674Z" fill="#fff"></path>
          <path id="Path_252" d="M466.066,4339.754a8.179,8.179,0,0,0-1.51-2.789,6.5,6.5,0,0,0-2.416-1.777,8.11,8.11,0,0,0-3.251-.622,9.4,9.4,0,0,0-5.205,1.581,17.14,17.14,0,0,0-4.389,4.21v-4.263a.754.754,0,0,0-.231-.656,1.136,1.136,0,0,0-.657-.161h-2.2c-.617,0-.924.273-.924.817v9.914H428.866a8.219,8.219,0,0,1-2.239-.249,3.751,3.751,0,0,1-1.457-.782v-8.811q0-.888-.923-.889h-2.132q-.924,0-.924.889v8.029a2.208,2.208,0,0,1-.337,1.457,1.917,1.917,0,0,1-1.368.356H401.473a1.917,1.917,0,0,1-1.369-.356,2.208,2.208,0,0,1-.337-1.457v-18.9q0-.852-.746-.746l-2.558.355a1,1,0,0,0-.516.231.9.9,0,0,0-.159.622v19.72a4.209,4.209,0,0,0,1.261,3.322,5.988,5.988,0,0,0,4.033,1.119h18.794q3.447,0,4.62-1.776a4.41,4.41,0,0,0,1.741,1.314,6.472,6.472,0,0,0,2.458.455c.009,0,.019.007.028.007h30.1a15.887,15.887,0,0,0,3.624-.355,5.854,5.854,0,0,0,2.416-1.12,4.259,4.259,0,0,0,1.333-2.007,9.76,9.76,0,0,0,.408-3.02A11.75,11.75,0,0,0,466.066,4339.754Zm-4.192,5.614a3.307,3.307,0,0,1-2.345.64H449.26a26.542,26.542,0,0,1,1.99-2.825,20.466,20.466,0,0,1,2.292-2.434,11.618,11.618,0,0,1,2.487-1.724,5.738,5.738,0,0,1,2.611-.657,3.453,3.453,0,0,1,2.843,1.279,5.465,5.465,0,0,1,1.03,3.518A3.064,3.064,0,0,1,461.874,4345.368Z" fill="#fff"></path>
        </g>
        <path id="Path_253" d="M522.328,4335.1a11.067,11.067,0,0,1,4.056-4.056,11.214,11.214,0,0,1,5.553-1.5,11.123,11.123,0,0,1,10.724,8.235l7.957,29.693a11.2,11.2,0,0,1,.276,1.427,11.1,11.1,0,0,1-21.726,4.315l-1.021-3.814-3.743,6.483h0l-.043.074a11.08,11.08,0,0,1-4.012,4l0-.006-.009.006a11,11,0,0,1-10.866.121c-.077-.037-.153-.077-.228-.121a11.094,11.094,0,0,1-3.924-3.846c-1.695-2.936.469-2.606,1.7-1.675a7.829,7.829,0,0,0,11.6-1.874l7.657-13.263a3.349,3.349,0,0,1,6.256.58l3.11,11.611a4.4,4.4,0,0,0,8.657-1.142,4.7,4.7,0,0,0-.027-.579,4.756,4.756,0,0,0-.12-.564l-7.956-29.692a4.384,4.384,0,0,0-4.255-3.259,4.432,4.432,0,0,0-2.074.5,4.524,4.524,0,0,0-1.746,1.7l-11.4,19.749c-9.493,16.442-11.762-2.254-16.3,15.015a11.1,11.1,0,0,1-21.831-2.871,11.224,11.224,0,0,1,.105-1.444,11.378,11.378,0,0,1,.277-1.427l7.956-29.693a11.107,11.107,0,0,1,20.334-2.682l5.012,8.682c-1.5,2.6-3.383,7.509-5.587,3.7-1.274-2.207-4.97-9.575-6.834-10.651a4.294,4.294,0,0,0-2.2-.581,4.384,4.384,0,0,0-4.255,3.259l-7.956,29.692a4.55,4.55,0,0,0-.12.564,4.7,4.7,0,0,0-.027.579,4.4,4.4,0,0,0,8.656,1.142l2.327-8.683c2.8-10.438,9.487.986,14.852-8.306Z" fill="#fff"></path>
      </g>
    </g>
  </symbol>
  <symbol xmlns="http://www.w3.org/2000/svg" viewBox="0 0 84.006 84.092" id="writing">
    <g id="writing" transform="translate(-1363.95 -6324.954)">
      <path id="Path_1" d="M1446.278,6409.046h-54.066a1.678,1.678,0,0,1,0-3.357h54.066a1.678,1.678,0,0,1,0,3.357Z" fill="#fff"></path>
      <path id="Path_2" d="M1444.455,6335.517l-10.091-10.091a1.728,1.728,0,0,0-2.373,0l-63.55,63.55a1.674,1.674,0,0,0-.428.729l-4,14.089a1.678,1.678,0,0,0,2.073,2.073l14.09-4a1.679,1.679,0,0,0,.728-.428l63.55-63.549A1.68,1.68,0,0,0,1444.455,6335.517Zm-18.938,1.129,2.673,2.672-52.855,52.855-2.672-2.672Zm-57.452,65.171,2.689-9.477,6.788,6.787Zm39.791-32.074-27.476,27.476-2.672-2.673,52.855-52.854,2.672,2.672Zm27.752-27.752-3.849-3.849-.009-.01-.01-.01-3.849-3.849,5.286-5.287,7.718,7.718Z" fill="#36a9e1"></path>
      <path id="Path_3" d="M1446.278,6397.432h-45.51a1.678,1.678,0,1,1,0-3.356h45.51a1.678,1.678,0,1,1,0,3.356Z" fill="#fff"></path>
      <path id="Path_4" d="M1446.278,6385.819h-34.816a1.678,1.678,0,1,1,0-3.356h34.816a1.678,1.678,0,1,1,0,3.356Z" fill="#fff"></path>
      <path id="Path_5" d="M1446.278,6374.206h-23.121a1.678,1.678,0,0,1,0-3.357h23.121a1.678,1.678,0,0,1,0,3.357Z" fill="#fff"></path>
    </g>
  </symbol>
  <symbol xmlns="http://www.w3.org/2000/svg" viewBox="0 0 82.974 72.996" id="code">
    <g id="code" transform="translate(-915.56 -6334.502)">
      <path id="Path_21" d="M935.03,6407.5a4.381,4.381,0,0,1-3.94-2.488H918.8a1.645,1.645,0,0,1,0-3.291H930.87a4.369,4.369,0,0,1,8.321,0h56.1a1.645,1.645,0,0,1,0,3.291H938.97A4.381,4.381,0,0,1,935.03,6407.5Z" fill="#36a9e1"></path>
      <path id="Path_22" d="M992.426,6334.5H921.667a6.139,6.139,0,0,0-6.107,6.156v47.374a6.139,6.139,0,0,0,6.107,6.157h70.759a6.14,6.14,0,0,0,6.108-6.157v-47.374A6.14,6.14,0,0,0,992.426,6334.5Zm2.817,53.53a2.845,2.845,0,0,1-2.817,2.866H921.667a2.845,2.845,0,0,1-2.817-2.866v-47.374a2.845,2.845,0,0,1,2.817-2.865h70.759a2.845,2.845,0,0,1,2.817,2.865Z" fill="#36a9e1"></path>
      <path id="Path_23" d="M962.561,6373.3a1.651,1.651,0,0,1-.826-3.08l9.176-5.291-9.176-5.292a1.65,1.65,0,0,1,1.649-2.859l14.132,8.151-14.132,8.15A1.642,1.642,0,0,1,962.561,6373.3Z" fill="#fff"></path>
      <path id="Path_24" d="M953.312,6373.3a1.642,1.642,0,0,1-.823-.221l-14.132-8.15,14.132-8.151a1.65,1.65,0,0,1,1.649,2.859l-9.176,5.292,9.176,5.291a1.651,1.651,0,0,1-.826,3.08Z" fill="#fff"></path>
    </g>
  </symbol>
  <symbol xmlns="http://www.w3.org/2000/svg" viewBox="0 0 75.888 75.884" id="design">
    <g id="design" transform="translate(-1370.009 -5991.058)">
      <g id="Group_8">
        <path id="Path_25" d="M1438.8,5999.726h-9.661a1.922,1.922,0,1,0,0,3.845h9.661a3.261,3.261,0,0,1,3.256,3.257v40.865a3.261,3.261,0,0,1-3.256,3.256h-61.683a3.261,3.261,0,0,1-3.257-3.256v-40.865a3.261,3.261,0,0,1,3.257-3.257h11.473a1.922,1.922,0,1,0,0-3.845h-11.473a7.11,7.11,0,0,0-7.1,7.1v40.865a7.11,7.11,0,0,0,7.1,7.1h23.433a12.864,12.864,0,0,1-4.938,8.29l-.528.4a1.924,1.924,0,0,0,1.158,3.459h23.433a1.923,1.923,0,0,0,1.157-3.459l-.528-.4a12.864,12.864,0,0,1-4.938-8.29H1438.8a7.11,7.11,0,0,0,7.1-7.1v-40.865A7.11,7.11,0,0,0,1438.8,5999.726Zm-23.912,63.37h-13.859a16.784,16.784,0,0,0,3.407-8.3h7.046A16.762,16.762,0,0,0,1414.883,6063.1Z" fill="#36a9e1"></path>
        <path id="Path_26" d="M1438.2,6040.5a1.923,1.923,0,0,0-1.923-1.923h-56.649a1.923,1.923,0,1,0,0,3.846h56.649A1.923,1.923,0,0,0,1438.2,6040.5Z" fill="#36a9e1"></path>
        <path id="Path_27" d="M1406.363,6044.762a1.923,1.923,0,1,0,0,3.846h3.181a1.923,1.923,0,0,0,0-3.846Z" fill="#fff"></path>
        <path id="Path_28" d="M1392.727,6036.233a1.923,1.923,0,0,0,1.923-1.923v-23.42h7.568v23.42a1.923,1.923,0,0,0,3.846,0v-25.342h0v-.006a2.016,2.016,0,0,0-.035-.347c-.009-.046-.023-.089-.035-.134s-.02-.1-.036-.142l-5.547-15.987a1.921,1.921,0,0,0-1.8-1.292h-.018a1.924,1.924,0,0,0-1.805,1.261l-5.868,15.985c-.019.054-.03.111-.044.166s-.028.089-.037.135a1.914,1.914,0,0,0-.036.362v25.343A1.922,1.922,0,0,0,1392.727,6036.233Zm5.816-37.532,2.9,8.343h-5.957Z" fill="#fff"></path>
        <path id="Path_29" d="M1412.467,6012.458l-.7,5.217a15.5,15.5,0,0,0-1.923,7.724c.049,3.045.136,6.07.257,8.991a1.923,1.923,0,0,0,1.92,1.843c.027,0,.054,0,.081,0a1.923,1.923,0,0,0,1.842-2c-.12-2.888-.206-5.881-.255-8.894a11.677,11.677,0,0,1,1.1-5.137h5.246a11.675,11.675,0,0,1,1.1,5.137c-.049,3.008-.135,6-.254,8.884a1.923,1.923,0,0,0,1.841,2h.081a1.923,1.923,0,0,0,1.92-1.843c.121-2.919.208-5.94.258-8.98a15.512,15.512,0,0,0-1.927-7.731l-.74-5.219c4.207-5.086,2.752-9.314,1.449-13.063a15.37,15.37,0,0,1-1.249-6.263,1.923,1.923,0,0,0-1.917-2.065c-3.917,0-8.043,3.167-10.034,7.7a13.236,13.236,0,0,0-1.053,7.055A13.1,13.1,0,0,0,1412.467,6012.458Zm3.358,3.9.345-2.569h2.444l.364,2.569Zm-1.746-16.047a9.819,9.819,0,0,1,4.651-4.974,24.6,24.6,0,0,0,1.4,5.318c1.224,3.519,2.056,5.912-.715,9.288h-4.042A9.006,9.006,0,0,1,1414.079,6000.306Z" fill="#fff"></path>
      </g>
    </g>
  </symbol>
</svg>